<?xml version="1.0" encoding="utf-8"?>
<!-- Generator: Adobe Illustrator 16.0.0, SVG Export Plug-In . SVG Version: 6.00 Build 0)  -->
<!DOCTYPE svg PUBLIC "-//W3C//DTD SVG 1.1//EN" "http://www.w3.org/Graphics/SVG/1.1/DTD/svg11.dtd">
<svg version="1.1" id="Layer_1" xmlns="http://www.w3.org/2000/svg" xmlns:xlink="http://www.w3.org/1999/xlink" x="0px" y="0px"
	 width="720px" height="720px" viewBox="0 0 720 720" enable-background="new 0 0 720 720" xml:space="preserve">
<g>
	<g>
		<path fill="#FFFFFF" d="M1.5,1.5c239.9,0,479.8,0,719.9,0c0,239.8,0,479.7,0,719.8c-239.9,0-479.9,0-719.9,0
			C1.5,481.4,1.5,241.5,1.5,1.5z"/>
		<path fill-rule="evenodd" clip-rule="evenodd" d="M706.5,12.1c4.3,4,3.3,8.4,3.3,12.4c0.1,67,0,133.9,0.1,200.9
			c0.1,78,0.3,155.9,0.3,233.9c0,76.7-0.3,153.5-0.5,230.2c0,6.5,1.4,13.1-1.5,20.3c-229.5,0-458.9,0-688.3,0c-2,0-3.9-0.5-6.1-3.2
			c0-76,0-153.1,0-230.9c10-4.8,20.9-7.3,31.7-9.9c28.5-6.9,57.2-12.8,86.2-17.1c24.6-3.7,49.3-6.6,74-9.1
			c60.6-6.1,121.3-7.7,182.1-6.6c26.8,0.5,53.6,1.7,80.4,3.7c24.3,1.9,48.6,3.8,72.8,6.6c23.3,2.7,46.4,6.6,69.5,10.3
			c21.9,3.5,43.6,8.7,65,14.3c4.5,1.2,8.8,2.8,13.2,4.2c2.7,0.9,5.3,2.2,8.4-0.1c-55.4-28-114.8-42.2-176.4-50
			c6.6-27.2,4.4-54.3,11.9-79.3c-11.9-16.4-14.5-34.9-20.4-52.1c-2.1-6.1,1.6-11.3,4.3-15.7c0.9-24.1-4.9-46.7-9-69.4
			c-2.9-16.2-9-31.9-20.4-44.9c-5-5.7-9.2-12-13.8-18.1c-0.9-1.2-1.6-2.9-2.8-3.3c-16.5-6.6-25-23.3-41-31.1
			c-13.8-6.8-25.9-17.1-39.1-25.3c-5.8-3.6-12.3-6-18.6-8.5c-6.5-2.6-18.2,1-22.3,6.8c-3.1,4.3-7.2,7.2-11.8,9.7
			c-14.5,7.8-29.7,13.7-45.6,17.8c-21.2,5.4-39.3,15.4-52.9,33.2c-8,10.5-19.3,17.8-30.8,25.6c-0.8,20.8-1.8,41.6,4.5,62.2
			c7.5,2.8,14.9-2.3,19.5-1c23.3,14.6,30.6,36,36.4,58.5c4.7,18.3,8.1,36.7,8.5,55.6c0,2.2,0.1,4.5,0.9,6.5
			c6.8,16.8,1.8,32.6-3.4,48.5c-0.3,0.9-0.9,1.7-1.2,2.7c-4.9,14.4-5,13.5-19.9,15c-23.5,2.5-47,4-70.4,7.7
			c-26.5,4.2-52.9,8.6-79,15.2c-30.2,7.6-59.7,16.8-87.1,31.7c-0.6,0.3-1.3,0.3-3.1,0.7c0-152.6,0-304.8,0-456.4
			c3.8-3.3,7.6-2.4,11.2-2.4c54.5,0,109,0.1,163.5,0c21.3,0,42.5-1,63.8-0.8c105.3,1.1,210.6,0.4,316,0.4c40.1,0,80.1-0.2,120.2-0.1
			C694.5,11.1,700.5,11.7,706.5,12.1z"/>
		<path fill-rule="evenodd" clip-rule="evenodd" d="M436.3,221.5c6.7,1.2,5.2,5.6,4.8,9.3c-1.4,13.6-1.9,27.3,0.2,40.9
			c0.4,2.6,0.7,5.4,1.8,7.8c9.2,20.7,6.1,42.1,3.8,63.4c-1.7,15.7-4.6,31.3-7.9,46.8c-1.8,8.2-5.7,15.4-11.3,22.2
			c-39.5,1-78.9-4.3-117,0.5c-4.3-3.2-5.7-6.2-6.5-9.7c7-12.8,1.8-26.2,1.8-39.2c-0.1-27.5-6.3-54.8-5.1-82.4
			c0.3-7.2-1.9-14.5-0.2-21c2.1-2.6,4.2-3,6.4-3.3c26.4-2.9,52.8-5.8,79.2-8.8c12.3-1.4,22.3-8.3,32.7-14.1
			C425.3,230.4,431.6,226.7,436.3,221.5z"/>
		<path fill-rule="evenodd" clip-rule="evenodd" d="M477,287.4c6,0.8,10.1,4.1,12,8.4c6.6,15.1,13.4,30.3,18.3,46.1
			c4.5,14.4,5.3,29.7,7.1,44.7c0.8,6.9-0.1,13.5-4,19.7c-1.9,3-2.9,6.6-4.4,10.1c-3.2,2.6-7.3,3.4-11,2.7c-17-3.3-34.4-3.2-51.6-5.6
			c-0.7-0.1-1.3-0.5-2.6-1c3.6-8.2,7.8-16.1,10.6-24.4c3.6-10.9,12-18.9,16.5-29.1c2-4.4,2.8-8.7,2.7-13.4
			c-0.6-16.1-0.1-32.2,2.8-48.1C474.1,294.1,474.8,290.8,477,287.4z"/>
		<path fill-rule="evenodd" clip-rule="evenodd" fill="#FFFFFF" d="M169.7,225c-13.7-6.2-25.7-14.8-34.5-27.7
			c-9.9-14.6-14.8-31.2-19.5-47.9c-1.4-5.2-3.6-10.1-5.6-15c-4.2-10.1-13.9-14-22.2-19c-6.4-3.9-14-5.4-21.7-6
			c-10.4-0.9-13.8-7.1-9.7-16.8c3.8-9.1,11.1-12.8,20.2-13.2c10.8-0.4,21.5-0.4,31.4-5.7c2.6-1.4,5.8-1.1,8.6-0.3
			c6.1,1.8,11.5,1.1,16.3-3.5c0.6-0.6,1.8-0.6,2.4-0.8c2.8,1.5,2.6,3.7,2,5.9c-1.8,7.2-1.3,13.6,3.1,20.2c3.9,5.9,4.8,13.3,6.4,20.1
			c4.6,19.2,13,36.4,25.3,51.7c1.4,1.7,2.5,3.8,2.4,6c-0.4,15.1,1.2,30.3-1.2,45.3C173.1,220.6,173.1,222.9,169.7,225z"/>
		<path fill-rule="evenodd" clip-rule="evenodd" fill="#FFFFFF" d="M612,565c-1.5,4.6-5.1,3.6-8.1,3.7c-21,0.2-42,0.4-63,0.4
			c-139.3,0-278.6-0.1-417.8-0.3c-3.7,0-7.8,1.3-10.8-2.2c-0.1-5.3,3.4-4.8,6.6-4.8c12.2,0,24.4,0.1,36.7,0.1
			c127.1-0.1,254.1-0.2,381.2-0.3c22.2,0,44.5,0.2,66.7,0.4C606.3,562,609.9,560.7,612,565z"/>
		<path fill-rule="evenodd" clip-rule="evenodd" fill="#FFFFFF" d="M181,167.4c7.1-2.8,13.7-1.8,19.8-0.8c2.2,2.7,1.8,5.3,1.8,7.7
			c0,10.7-0.1,21.5-0.2,32.2c-0.1,5.4-0.2,10.5,2.5,15.6c2.8,5.2,2,11.1,0,16.4c-2.1,5.9-1.6,11.4,0.5,17.1
			c2.1,5.5,3.8,11.1,5.7,16.6c0.8,2.3,1.8,4.5,0.6,7.4c-5.2,3.4-11.9,1-18.1,4.2c-0.8,1.1-2.1,2.7-3.2,4.3c-3.4,0-3.7-3.4-7.4-5
			c-3.5-1.2-9.4,1.2-14.5-3.4c0.4-6.6,2.4-13.4,5.1-19.8c2.8-6.7,3.4-13.6,3.6-20.7c0.7-22.8,4-45.5,2.8-68.4
			C180.2,169.9,180.6,169,181,167.4z"/>
		<path fill-rule="evenodd" clip-rule="evenodd" fill="#FFFFFF" d="M168.2,503.3c1.3,10,2.5,19.6,3.9,30.6c5-6.6,4.9-13.9,8.2-19.9
			c1.9-1.6,3.9-1.1,6.4-0.5c2.1,6.4,4.2,12.8,6.9,20.9c3.7-11.1,3-21.3,5.1-30.8c2.7-1.3,4.9-1.4,7.8,0.2c-1,15.3-3.7,30.5-7.4,45.7
			c-1.3,0.3-2.2,0.6-3.1,0.6c-1.2,0-2.4-0.2-3.5-0.3c-4.1-6.4-5.2-13.8-8.9-21c-4.7,6.5-5.4,14.3-9.6,20.5c-2,1.1-4.1,1.1-6.7-0.1
			c-3.8-14.8-6-30-7.3-45.3C162.7,502.1,165,502.6,168.2,503.3z"/>
		<path fill-rule="evenodd" clip-rule="evenodd" fill="#FFFFFF" d="M415.1,489.6c8.1-2.3,16.2-2.5,24-0.7
			c10.1,2.3,14.8,9.8,14.3,20.8c-0.5,10-6.5,16.7-16.7,18.3c-3.8,0.6-7.7,0.5-11.6,0.7c-2.3,3.5-1.1,7.3-1.4,10.8
			c-0.3,3.3,0.7,6.8-1.1,10c-2.4,1.2-4.7,1.1-7.5,0C415.1,529.7,415.1,509.8,415.1,489.6z"/>
		<path fill-rule="evenodd" clip-rule="evenodd" fill="#FFFFFF" d="M502.4,529.2c-10.2,1.5-20.6-0.5-30.9,1.1
			c1.2,10.9,8.7,13.6,26.3,9.9c2.2,1.7,2.3,4,1.9,6.5c-9.1,5.5-22.4,4.9-30.3-1.2c-7.4-5.6-10.4-16.8-7.3-27.3
			c3.3-11.1,14.8-17.7,26.6-15.2C499.2,505.3,504.7,515.5,502.4,529.2z"/>
		<path fill-rule="evenodd" clip-rule="evenodd" fill="#FFFFFF" d="M150.4,491.9c-0.2,2.7-0.6,4.8-2.9,6.5
			c-7.4-1.5-15.3-5.4-22.1,1.8c-2.2,6.3,0.9,9.9,6.1,12.3c4,1.8,8.1,3.3,12,5.4c7.7,4,10.7,10.1,9.5,18.8
			c-0.9,6.8-5.7,11.2-13.9,13.1c-8.1,1.8-17,0.3-24.7-4.1c-0.8-2.8,0.3-5.1,2.3-7.2c5.1,1.5,9.9,4.3,15.5,3.7
			c4.6-0.5,9.6-0.7,11.1-6.4c1.5-5.9-2.3-9.1-7-11.4c-4.2-2-8.6-3.5-12.6-5.7c-7.1-3.9-9.5-9.2-8.4-17c1-7.2,5.6-11.1,12.2-13
			C134.3,486.7,143.2,488,150.4,491.9z"/>
		<path fill-rule="evenodd" clip-rule="evenodd" fill="#FFFFFF" d="M291.3,539.5c1.4-4.8-1.7-6.1-4.7-7.3c-4.5-1.8-9.2-3.3-13.6-5.3
			c-5-2.3-8.4-6-7.8-12c0.6-6.1,4.4-9.7,10.1-11.1c8-2,15.8-1.8,23.2,1.1c1.1,3.2,0.4,5.4-1.2,7.9c-7.6-0.6-16.1-5.5-23,2
			c1.4,4.9,5.1,5.4,8.2,6.5c4.6,1.7,9.3,3.1,13.4,5.8c3.9,2.6,6.4,6.1,6,11c-0.4,5.1-3.3,8.8-8,10.4c-9.8,3.1-19.5,3.1-28.8-1.6
			c-0.4-2.9,0-5.3,1.2-8C274.3,540.1,282.6,545.5,291.3,539.5z"/>
		<path fill-rule="evenodd" clip-rule="evenodd" fill="#FFFFFF" d="M341,539.7c1.7-4.6-1-6.1-4.1-7.4c-4.5-1.8-9.2-3.3-13.6-5.3
			c-5.2-2.4-8.9-6.2-8.1-12.5c0.7-6.1,4.7-9.5,10.4-10.9c7.7-1.8,15.4-1.7,22.7,1.2c1.5,3.1,0.7,5.5-1.2,8.1
			c-7.5-1.2-15.4-4.9-22.4,0.9c-0.4,5,3.2,5.7,6,6.8c4.7,1.9,9.8,3.1,14.2,5.8c4.5,2.7,7.5,6.4,6.9,11.9c-0.6,5.8-4.3,9.2-9.7,10.6
			c-9.2,2.3-18.3,2.3-27-2c-0.8-3-0.3-5.5,1.1-8.3C324.4,540.5,332.7,545.3,341,539.7z"/>
		<path fill-rule="evenodd" clip-rule="evenodd" fill="#FFFFFF" d="M600.4,540.2c1.5,2.2,1.9,4.3,1.5,6.5
			c-12.9,8.8-25.3,3.1-26.1-12.2c-0.6-11.9-0.3-23.9-0.4-35.8c0-3.1,0.6-6.3-1.6-9.6c-3.4-0.2-6.9-0.5-10.4-0.7
			c-1.8-2.4-1.7-4.6-0.1-7.2c6.6-0.9,13.3-0.5,19.9-0.2c2.5,2.7,1.7,5.7,1.8,8.5c0.1,13.2,0,26.3,0.1,39.5
			C585,542.6,586.8,543.9,600.4,540.2z"/>
		<path fill-rule="evenodd" clip-rule="evenodd" fill="#FFFFFF" d="M234.9,622.8c0-9.5,0-18.9,0-27.8c2.4-1.7,4.1-1.6,5.7-0.8
			c1.6,2.5-0.2,32.9-2.6,42.8c-1.6,1.6-3.4,1.3-5.6,0.4c-2.9-5.1-3.5-11.4-6.4-17.8c-3.8,5.7-3.7,12-6.5,17.4
			c-1.8,1.5-3.8,1.5-6.3,0.1c-2.6-13.9-2.5-28.3-3.1-42c2.1-2,3.7-1.5,6-1c1.7,9.5,0.5,19.2,1.5,29.5c3.2-4.5,2.7-9.7,5.5-13.3
			c1.7-0.9,3.3-0.9,5.3,0c2.5,3.6,2.6,8.5,4.7,12.6C233.7,622.9,234.3,622.9,234.9,622.8z"/>
		<path fill-rule="evenodd" clip-rule="evenodd" fill="#FFFFFF" d="M225.2,511.1c-3.8-0.3-7.4-0.5-10.8-0.8
			c-1.8-2.2-1.4-4.3-0.8-7.1c6.9-1.3,13.8-0.5,21.4-0.5c2.1,12.1-0.3,24.2,1.5,35.5c4.5,6.5,9.8,3.1,14.7,1.8
			c1.9,2.3,1.9,4.7,1.7,6.9c-14.4,8.1-25.1,2.5-26.3-13.1C226,526.4,227.5,518.7,225.2,511.1z"/>
		<path fill-rule="evenodd" clip-rule="evenodd" fill="#FFFFFF" d="M397,605c1.9,0.1,3.4,0.2,4.8,0.2c8.4,0.4,12.6,4.1,13.2,12.4
			c0.4,6.3,0.1,12.6,0.1,18.5c-1.7,2.4-3.6,2.1-6,1.3c-2.3-7.8,0.6-16.3-2.2-24.1c-2.8-3.3-6.1-3.6-10.1-2.1
			c-2.6,8.7,0.4,17.6-1.9,26c-2.1,1.2-3.9,1.3-6-0.4c0-15,0-30.2,0-45.4c1.6-1.8,3.3-2.3,5.7-1.6C397.1,594.3,394.5,599.8,397,605z"
			/>
		<path fill-rule="evenodd" clip-rule="evenodd" fill="#FFFFFF" d="M347,637.3c-2.6,1.2-4.5,1-6.6,0.5c-4.3-4.1-7.6-9.7-13.7-12.4
			c-2.6,3.9-0.3,8.1-2.3,11.8c-1.6,1.5-3.4,1.2-5.8,0.1c0-15,0-30.3,0-45.8c1.3-2,3.3-2.3,5.9-1.4c1.9,8.2-0.2,16.8,1.3,25.4
			c7.7-0.8,9.8-12.4,19.4-9.6c-2.6,6.4-9.2,8.7-12.9,14.2C336.8,625.9,343.7,629.9,347,637.3z"/>
		<path fill-rule="evenodd" clip-rule="evenodd" fill="#FFFFFF" d="M467.2,638.8c-1.8,3.6-0.2,7.3-2.2,10.3c-1.6,1-3.3,0.8-5.5,0
			c0-13.6,0-27.4,0-41.7c7.5-2.9,14.9-4,22,1.1c5.3,3.8,7.3,12.1,5.2,19.4C484.5,635.1,480.7,637.2,467.2,638.8z"/>
		<path fill-rule="evenodd" clip-rule="evenodd" fill="#FFFFFF" d="M526.7,513.3c0,11.8,0,23.9,0,35.5c-3,2.1-5.4,1.2-8.5,1.2
			c0-14.4,0-28.7,0-43.6c10.3-4.6,21.1-4.6,31.7-2.8c2.2,3.3,0.1,5.3,0,8C542.1,511,534.6,509.3,526.7,513.3z"/>
		<path fill-rule="evenodd" clip-rule="evenodd" fill="#FFFFFF" d="M276,621.9c0,9.8-5.9,16.3-14.8,16.4
			c-9.3,0.1-15.4-6.4-15.3-16.6c0-9.8,5.9-16.3,14.8-16.4C270.1,605.1,276.1,611.6,276,621.9z"/>
		<path fill-rule="evenodd" clip-rule="evenodd" fill="#FFFFFF" d="M452,621.8c0,9.8-5.8,16.3-14.7,16.5
			c-9.3,0.2-15.4-6.4-15.4-16.5c0-10.1,6.1-16.6,15.5-16.5C446.3,605.4,452,611.8,452,621.8z"/>
		<path fill-rule="evenodd" clip-rule="evenodd" fill="#FFFFFF" d="M377.9,606.7c-0.3,1.7-0.6,3-0.8,4.3
			c-12.2-0.4-12.2-0.4-15.9,2.2c-0.2,3.6,2.9,4,5.2,5.1c3.1,1.4,6.4,2.4,9.3,4c2.9,1.6,4.7,4.3,4.2,7.9c-0.5,3.5-2.7,5.8-5.9,6.8
			c-6.7,2-13.3,2.1-19.4-0.7c-1.6-2.2-0.9-3.6,0.4-5.2c5.7,0,12,5.3,17.3-0.7c0.2-3.7-2.3-4.5-4.6-5.3c-2-0.8-4.2-1.3-6.2-2.2
			c-4.1-1.8-8.2-4-7.5-9.4c0.7-5.5,5-7.6,9.9-8C368.2,605,372.6,604.8,377.9,606.7z"/>
		<path fill-rule="evenodd" clip-rule="evenodd" fill="#FFFFFF" d="M286.2,608c7.5-3.5,14.9-3,21.7-2.2c2.1,2.2,1.3,3.7,0.3,5.4
			c-5.1-0.2-10.6-2.5-16,2.2c0,7.6,0,15.8,0,23.5c-2.3,1.6-3.9,1.4-6,0.4C286.2,627.9,286.2,618.2,286.2,608z"/>
		<path fill-rule="evenodd" clip-rule="evenodd" fill="#FFFFFF" d="M235.9,489.1c-0.4,4.4-2.4,6.8-6.5,6.8c-3.9,0.1-6.7-1.7-6.9-5.9
			c-0.2-4.2,2.4-6.2,6.3-6.4C233,483.4,235,485.7,235.9,489.1z"/>
		<path fill-rule="evenodd" clip-rule="evenodd" d="M424.4,519.8c-1.1-8.1-0.6-15.4-0.4-23.2c7-0.8,13.5-1.8,17.9,4
			c3.3,4.3,3.4,9.9,0.2,14.4C438,521,431.5,520.6,424.4,519.8z"/>
		<path fill-rule="evenodd" clip-rule="evenodd" d="M471.1,521.1c2-7.1,6.2-10.4,12.4-10.3c5.9,0,9.1,3.6,10.3,10.3
			C486.1,522,478.8,521.9,471.1,521.1z"/>
		<path fill-rule="evenodd" clip-rule="evenodd" d="M466.5,630.7c-0.4-6.6-0.9-12.8,0.4-19.3c5.2-2,9.1-0.6,12,3.8
			c2.8,4.2,2.2,11.6-0.9,15.1C474.6,633.9,470.9,634,466.5,630.7z"/>
		<path fill-rule="evenodd" clip-rule="evenodd" d="M269.4,621.7c0,6.5-3.9,11.6-8.7,11.3c-4.6-0.2-8-5-8.1-11.2
			c0-6.6,3.8-11.6,8.7-11.3C265.8,610.7,269.4,615.6,269.4,621.7z"/>
		<path fill-rule="evenodd" clip-rule="evenodd" d="M445.4,621.6c0.1,6.5-3.7,11.6-8.6,11.5c-4.6-0.1-8.1-4.9-8.2-11.1
			c-0.1-6.5,3.7-11.6,8.6-11.5C441.7,610.6,445.3,615.4,445.4,621.6z"/>
	</g>
</g>
</svg>
