<?xml version="1.0" encoding="utf-8"?>
<!-- Generator: Adobe Illustrator 16.0.0, SVG Export Plug-In . SVG Version: 6.00 Build 0)  -->
<!DOCTYPE svg PUBLIC "-//W3C//DTD SVG 1.1//EN" "http://www.w3.org/Graphics/SVG/1.1/DTD/svg11.dtd">
<svg version="1.1" id="Layer_1" xmlns="http://www.w3.org/2000/svg" xmlns:xlink="http://www.w3.org/1999/xlink" x="0px" y="0px"
	 width="720px" height="720px" viewBox="0 0 720 720" enable-background="new 0 0 720 720" xml:space="preserve">
<g>
	<g>
		<path fill="#FEFEFE" d="M715.9,1.9c2.5,0,5.7-0.9,4.4,3.7c-0.3,0.9,0,1.9,0,2.9c0,235.5,0,471.2,0.1,706.8c0,5.4-1.2,6.7-6.7,6.7
			c-235.7-0.1-471.5-0.1-707,0c-5.4,0-6.7-1.2-6.7-6.7C0.2,649,0.1,582.9,0.1,516.6c1-0.4,1.8-0.1,2.3,0.7c1.5,2.9,1.2,6.2,1.2,9.2
			c0,17.6,0,35.3,0,52.9c-0.3,11.7,0.3,23.5,0,35.3c-0.1,30.8,0,61.6,0,92.4c0,8.7,1,9.5,9.7,9.7c20.9,0.3,41.9-0.7,63-0.1
			c27.2-0.3,54.5-0.4,81.7,0c16.5,0.4,33.1-0.4,49.6,0c6.1,0,12.2,0,18.3,0c36.5,0.3,72.9-0.6,109.5-0.1c52,0.4,103.8,0.3,155.8,0.1
			c68.7-0.1,137.5,0.3,206.1,0c3.4,0,6.9,0,10.2-0.1c6,0.1,7.9-3.1,7.8-8.7c-0.3-15.5,0.3-31.1-0.6-46.6c0.9-18,0.9-36.1,0.4-54.1
			c0.3-48.4,0.1-96.8,0.1-145.2c0-61.2,0.1-122.2,0-183.3c0-2.5,0.1-4.8-0.6-7.2c-0.1-0.9-0.3-1.8-0.3-2.8c1-7.9,0.9-15.8,0.9-23.8
			c0.1-3.1-0.4-6.3-0.1-9.4c0.1-15,0-29.9,0-45c-0.1-60.1,0.3-120.3-0.3-180.4C715,7.7,714.6,4.7,715.9,1.9z"/>
		<path fill="#F29602" d="M715.9,1.9c1.5,1.9,1.5,4,1.5,6.3c0,60.3,0,120.6,0,180.7c0,0.7-0.1,1.5-0.3,2.2c-1,0.3-1.8-0.1-2.2-1
			c-1.9-5-1-10.1-1.2-15.1c-0.1-12.9,0-25.8,0-38.7c0-4.1-0.6-7.6-4.1-10.3c-4-3.1-3.4-7.2-1.8-11.3c5-3.4,6.1-8.1,6-13.8
			c-0.3-16.1-0.1-32.3-0.1-48.3c0-4.4-0.7-8.2-5.3-10.3c-3.5-5.9-1.3-12.3-1.9-18.5c-0.3-2.9,1-6.5-2.5-8.5
			c-4.5-1.9-9.8,0.1-14.2-2.2c-0.6-0.4-1-1.2-1.2-2.1c0.9-3.8-0.1-5.7-4.7-5.6c-10.7,0.3-21.4,0.3-31.9,0c-5.1-0.1-7.2,3.2-9.8,6.3
			c-5,1.8-10.1,1.5-15.1,0.3c-4.1-5.9-9.8-7.2-16.5-6.6c-2.3,0.3-4.8,0-7-1.3c-0.7-0.6-0.9-1.3-0.4-2.2
			C640.8,1.9,678.4,1.9,715.9,1.9z"/>
		<path fill="#ED9D02" d="M246.1,1.9c61.9,0,124,0,185.9,0c0.4,1,0.1,1.8-0.7,2.3c-4.1,2.1-8.5,1.3-12.7,1.3
			c-12.7,0-25.5,0.1-38.2,0c-20.4-0.3-40.9,0.4-61.2-0.4c-6.6-0.3-2.8,4.5-4.7,6.3c-1.3,0.9-2.8,1.2-4.2,1.2
			c-19.2,0-38.5,0.7-57.7-0.4c-4-1.3-3.8-5.9-6.4-8.2C245.5,3.4,245.5,2.7,246.1,1.9z"/>
		<path fill="#F7E2AE" d="M1.3,516.7c-0.4,0-0.9,0-1.2-0.1c0-142.7,0-285.4,0-428.3c1-0.4,1.9-0.1,2.5,0.9
			c2.3,11.3,1.2,22.9,1.3,34.3c0.1,44.9-0.3,89.8-0.1,134.8c0.3,13.3,0.4,26.7,0,40c0,68.9,0,137.7-0.1,206.7
			C3.6,509,4.8,513.4,1.3,516.7z"/>
		<path fill="#F2AB42" d="M603.2,1.9c0,0.4,0,1-0.1,1.5c-5.6,4-11.7,1.8-17.7,2.2c-24.7,0.1-49.3,0.6-74.1-0.1
			c-0.9-0.1-1.8-0.6-2.6-1c-0.9-0.6-1.2-1.5-0.7-2.3C539.8,1.9,571.5,1.9,603.2,1.9z"/>
		<path fill="#F1AE0F" d="M1.6,1.9c4.8,0,9.8,0,14.6,0c0.4,0.6,0.7,1.2,0.7,1.9C13.4,10,9.5,15.6,1.8,17.1c-0.7-0.4-1-1.2-1-1.9
			C1.3,10.7,0.1,6.2,1.6,1.9z"/>
		<path fill="#FEFDFB" d="M1.6,1.9c0.1,4.8,0.1,9.8,0.3,14.7c2.3,2.9,1.8,6.5,1.8,9.8C3.7,44.6,3.5,63,4.5,81.1
			c-0.6,2.6-0.9,5.4-3.1,7.3c-0.4,0-0.9,0-1.3,0.1c0-27.1,0-54.3,0.1-81.4C0.2,5.5-2.1,2.7,1.6,1.9z"/>
		<path fill="#EFA343" d="M99.6,1.9c26.8,0,53.7,0,80.5,0c0.4,1,0.1,1.8-0.7,2.3c-1.5,0.9-3.2,1.2-5,1.3c-23.7,0-47.3,0.7-71-0.3
			C101.7,4.7,99.6,4.6,99.6,1.9z"/>
		<path fill="#EFAE06" d="M99.6,1.9c0.7,1.2,1.8,1.5,3.1,1.5c4,5.3,2.9,8.4-2.9,9.1c-2.6,0.3-5.1,0.3-7.8-0.6
			c-3.1-1.6-3.2-4.5-3.4-7.5c0.1-1.3,1.3-1.9,2.2-2.6C93.8,1.9,96.7,1.9,99.6,1.9z"/>
		<path fill="#F27F40" d="M508.1,1.9c0,0.4,0,0.9,0,1.3c-2.3,2.8-5.7,2.5-8.8,2.5c-16.7,0-33.2,0.3-49.9-0.1c-2.3-0.1-4.5,0-6.6-1.3
			c-0.9-0.6-1-1.3-0.6-2.3C464.2,1.9,486.2,1.9,508.1,1.9z"/>
		<path fill="#F0A640" d="M246.1,1.9c0,0.4,0,1,0,1.5c-5,3.7-10.5,1.8-16,2.2c-9.4,0.1-18.7,0.3-28.1-0.1c-1.8,0-3.5-0.3-5.1-1.2
			c-0.9-0.6-1-1.3-0.6-2.2C212.8,1.9,229.4,1.9,246.1,1.9z"/>
		<path fill="#F4CF43" d="M90.9,1.9c-0.4,0.4-1,1-1.5,1.5c-0.6,0.7-1.5,1.5-2.3,1.5C74.5,5.8,61.7,6.8,49.1,4.3
			C48.3,3.7,48,3,48.4,1.9C62.6,1.9,76.7,1.9,90.9,1.9z"/>
		<path fill="#F3CB30" d="M48.4,1.9c0,0.4,0,0.9,0,1.3c-10.7,3.8-21.5,3.8-32.2,0c0-0.4,0-0.9,0-1.5C26.9,1.9,37.7,1.9,48.4,1.9z"/>
		<path fill="#ED9622" d="M196.3,1.9c0,0.4,0,0.9,0,1.3c-5.4,3.4-10.8,3.4-16.3,0c0-0.4,0-0.9,0.1-1.3
			C185.6,1.9,190.9,1.9,196.3,1.9z"/>
		<path fill="#F0A936" d="M442.3,1.9c0,0.4,0,0.9,0,1.3c-0.7,1.2-1.9,1.6-3.1,1.9c-2.5,0.3-5,0.4-7-1.8c0-0.4,0-0.9,0-1.3
			C435.4,1.9,438.7,1.9,442.3,1.9z"/>
		<path fill="#EB6603" d="M717.1,462.2c0,48.5,0,97.1,0,145.8c-0.7,8.1-0.3,16-0.3,24.1c0,5.3-1.6,7.5-6.9,5.1c-1.6-1-3.1-2.1-4-3.8
			c-2-6.9-1-14.1-1-21.1c0.1-13.3-0.7-26.8,0.6-40.2c2.1-2.9-0.9-8.5,5-9.5c2.9,3.8,1.3,8.4,2.3,12.6c1.5-1,1-2.3,1-3.4
			c0-29.8,0.3-59.5,0.1-89.3c0-1.2-0.1-2.5-0.4-3.7c-1.3-3.7-0.3-7.8-1.5-11.4c-2.2-0.7-4,6.2-6.4,0.3c-0.7-2.6-0.7-5.3-0.7-8.1
			c0-61,0-122.2,0-183.2c0-2.9-0.1-5.9,1-8.7c0.4-0.9,1-1.6,1.9-2.1c1,0.3,1.8,0.9,2.2,1.8c1.5,3.8,1,7.8,1,11.6
			c-0.1,44.1,0.3,88.4-0.1,132.6c-0.1,12.3,0,24.8,0.1,37.3c0,3.5-0.7,7.6,3.8,9.2C716.5,458.8,716.6,460.6,717.1,462.2z"/>
		<path fill="#EB9900" d="M708.7,412.6c0-48.8,0-97.7,0-146.5c3.2-1.3,5.3,0.6,7.2,2.8c0.1,0.4,0.3,0.7,0.1,1.2
			c1.2,2.3,0.6,4.8,0.6,7.2c0,39.7,0.1,79.3-0.1,119.1c0,7.3-0.6,14.8-3.4,21.9C707,420.2,710.8,414.2,708.7,412.6z"/>
		<path fill="#F3C50C" d="M708.4,718.7c-44.4,0-88.7,0.1-133.1,0.1c-79.9,0-159.9,0-239.8-0.1c1.2-4,4.5-2.9,7.2-3.1
			c3.1-0.3,6.3,0,9.5-0.3c39.5,0,79.1-0.3,118.6,0.1c8.8-0.1,17.6-0.4,26.4,0c12.9,0.6,25.2-1,37.3-5.4c7.9-0.6,15.7-0.3,23.6-0.3
			c1.8,0.1,3.7,0.4,4.5,1.9c3.4,6.5,8.3,4,13,2.2c2.9-1.2,5.6-3.2,8.5,0c2.5,2.2,5.6,1.5,8.3,1.5c14.2,0.1,28.5,0,42.8,0
			c21.8-0.3,43.6-0.3,65.4,0C703.2,715.8,707,714.4,708.4,718.7z"/>
		<path fill="#F49F07" d="M158.2,718.6c-27.4,0.1-54.6,0.1-82,0.3c-1.8-3.8-0.9-7,2.3-9.7c7.6-1.8,15.5-0.7,23.3-0.9
			c13.3-0.1,26.8,0,40.1,0c8.5,0.1,17,0,25.5,0.1c1.9,0,4.5,0.1,5.1,2.1c0.7,2.5-2.2,2.6-3.7,3.7c-2.6,2.1-5.7,2.6-8.8,2.9
			C159.4,717.5,158.8,718,158.2,718.6z"/>
		<path fill="#F08601" d="M708.4,718.7c-2-1.9-4.7-0.6-7-1.2c-1.3-1-3.1-1.2-4.5-2.1c-1.8-1-3.2-2.5-2.9-4.5c0.3-1.9,2.3-2.2,4-2.5
			c1.9-0.3,3.7-1,5-2.5c2.5-3.2,1.9-7,2.1-10.6c0.1-17,0-34.2,0.1-51.2c0-3.5-0.7-7.5,2.5-10.3c0.9,0.4,1.8,0.9,2.6,1.5
			c0.1,1.8,0.7,3.4,0.6,5.1c-0.6,7.9-0.7,15.7,5.6,21.9c2.2,13.1,0.1,26.1,1.2,39.2c0.3,3.1-0.1,6.3,0.1,9.5
			C718.1,717.7,715.2,720.5,708.4,718.7z"/>
		<path fill="#EDB733" d="M1.3,516.7c0.1-13.3,0.3-26.8,0.3-40.2c0.1-59.4,0.3-118.9,0.3-178.3c1-0.1,1.8,0.3,2.2,1.3
			c1.3,2.8,1.2,5.7,1.2,8.5c0,19.7,0.3,39.2-0.1,58.8c0.3,9.8,0.3,19.7,0,29.6c0.3,22.3,0.3,44.6,0,66.9c0.4,6.6,0,13.1,0.1,19.7
			c0.1,13.9,0.1,27.9,0,41.7c0.1,14.2,0.1,28.6,0,42.8c0,4.4,1.2,7.5,5.6,8.9c2.9,4.8,1.3,10.3,1.6,15.4c0.3,4-0.3,8.1,0.7,12
			c0.3,1.8,0.1,3.5-0.9,5c-7.3-0.9-9.5-3.1-9.8-9.7C2.1,592.6,3,586.1,2,579.5C1.7,558.8,1.4,537.7,1.3,516.7z"/>
		<path fill="#F0B802" d="M351.3,717.5c-5.3,0.7-10.8-1.3-16,1.3c-36.6,0-73.2,0-109.8,0c-0.3-1,0.1-1.8,1-2.2
			c10.1-2.3,20.4-1.2,30.5-1c12.6,0.1,24.7-0.7,36.3-6c3.4-1.6,7.2-1.2,10.7-2.3c16.8-1.2,33.8-0.4,50.7-0.4c1.8,0,3.4,0.4,4.8,1.2
			c0.9,0.4,1.3,1.2,1.2,2.2c-4.8,4.1-10.7,2.2-16.1,2.3c-7.6,0.3-15.2-0.4-23.3-1.5c7.2,1.3,14.1,0.4,20.5,1.9
			C345.2,713.6,349.7,712.7,351.3,717.5z"/>
		<path fill="#F4A800" d="M77.7,710.3c0.4,2.9-0.9,5.7-1.5,8.5c-22.8,0.1-45.8,0.1-68.7,0.3c-4.4,0-6-1.5-6-6
			c0.1-32.7,0.3-65.4,0.3-98.1c1-0.3,1.8,0,2.2,0.9c1.6,3.5,1.2,7.2,1.2,10.9c0,25.8,0,51.6,0,77.6c0,10.6,0.4,10.6,11.3,11.1
			c10.2,0.4,19.6-1.9,29.1-5.1C56,706.8,67,706.7,77.7,710.3z"/>
		<path fill="#F08605" d="M717.1,236.5c0,2.9,0,5.9,0,8.8c-0.6,0.4-1.2,0.6-1.8,0.4c-3.1-1.5-7.6,5.3-9.8-1.6
			c-0.7-12.3-0.7-24.6,0-37c3.1-2.5,1.5-4.8,0-7.3c-1-15-0.3-29.8-0.4-44.6c0-2.2,0.3-4.4,1.8-6.2c5.3,0.4,4,4.7,4,7.5
			c0.4,10.7,0.3,21.4,0.1,32.3c-0.1,4.8,1.2,8.5,5.4,11.1C717.5,212,715.9,224.3,717.1,236.5z"/>
		<path fill="#F4A811" d="M711.7,418.5c0.1-0.1,0.6-0.3,0.4-0.4c-0.7-8.9,4-17,4-26.1c-0.1-40.6,0-81.1,0-121.7
			c1.8,1.5,1.2,3.5,1.2,5.4c0,61.5,0,122.9,0,184.4c0,0.7-0.1,1.5-0.3,2.2c-0.4-0.9-0.7-1.8-1.2-2.6c-1.8-1-2.8-2.6-2.8-4.7
			c-0.4-11-1.2-22.1-2.6-33.1C710.2,420.5,710.6,419.4,711.7,418.5z"/>
		<path fill="#F6A806" d="M716.2,662.2c-1.5-3.4-7.2-0.1-7.3-4.3c-0.1-7.5-1.9-15.3,1.2-22.6c4.4,2.6,5.9,1.2,6-3.7
			c0.3-7.9-1.3-15.8,0.9-23.8C717.1,626,718.2,644.2,716.2,662.2z"/>
		<path fill="#F2C05A" d="M3,615.2c-0.4,0-0.7,0-1.2,0c0-11.7,0-23.6,0-35.3c2.5,3.8,1.5,8.2,1,12c-0.7,7.8,1.2,13.8,8.6,17.3
			c3.2,3.2,2.5,6.9,1.5,10.7C6.7,624.4,6.2,616.9,3,615.2z"/>
		<path fill="#F1BE00" d="M158.2,718.6c0-0.3,0-0.6,0-0.9c4.2-2.3,8.9-1.6,13.3-2.1c6.6-0.6,12.9-1.6,19.3-3.2
			c5.4-1.5,11-2.8,15.7,1.9c0.4,0.7,0.9,1.3,1.3,2.1c0.4,0.7,0.4,1.5,0.1,2.3C191.3,718.6,174.8,718.6,158.2,718.6z"/>
		<path fill="#E65B04" d="M716.1,245.4c0.3,0,0.7,0,1,0c0.3,7.9,1.6,15.8-1.2,23.6c-2.3-0.9-4.8-1.9-7.2-2.8l-0.1-0.3
			c-3.1-4.8-2.3-9.4,1.6-13.2C712.4,250.4,713.7,247.5,716.1,245.4z"/>
		<path fill="#EF9A01" d="M717.1,236.5c-2.3-9.5-0.4-19.1-1-28.6c-0.1-2.6-0.1-5.3-0.1-7.9c-2.1-2.9-2.3-5.9,0.1-8.8
			c0.4,0,0.7,0,1.2,0C717.1,206.3,717.1,221.4,717.1,236.5z"/>
		<path fill="#F49F07" d="M208,718.6c0-0.3,0-0.6,0-0.9c5.9-3.2,11.7-3.2,17.7-0.1c0,0.4,0,0.7,0,1.2
			C219.7,718.7,213.9,718.7,208,718.6z"/>
		<path d="M11.5,620.6c0-3.8,0-7.8,0-11.6c0-1.6-0.1-3.1-0.1-4.7c-2.1-41.2-1.6-82.4-1.8-123.6c0-7.8,5.4-9.8,10.8-11.7
			c9.7-3.4,19.5-6.2,29.6-7.9c12.4-3.4,25.2-5.1,37.6-8.1c24.2-5.1,48.6-9.1,73.1-11.9c7.5-0.4,14.8-2.1,22.3-2.8
			c7-0.1,14.1-2.1,21.1-1.6c3.2-0.3,6.4-1.5,9.7-1.3c4.1-0.1,8.2,0.1,12.2-1c7.2-1,14.5-0.1,21.5-1.9c7.9-0.9,15.8,1,23.6-1.2
			c9.7-1.3,19.5-0.1,29.1-0.4c3.4,0,6.7,0,10.1-1c6.4-1,12.9-0.6,19.3-0.6c15.8-0.3,31.8-0.1,47.6-0.1c13.3-0.9,26.5,2.3,39.7,1.6
			c7.3,0,14.6-0.4,21.8,0.4c16.7,1.6,33.5,2.2,50.2,3.7c13.3,1.2,26.6,2.3,40,3.7c11.3,1.6,22.4,3.5,33.8,4.5
			c3.5,1.3,7.3,0.7,11,1.6c16.4,2.8,32.8,5.1,48.9,8.7c3.4,1,6.9,1.3,10.2,2.3c4.8,1,9.5,2.1,14.3,3.1c3.8,1.2,7.9,1.6,11.7,2.8
			c10.2,3.5,21.4,4.3,31.3,8.8c-6.3-3.5-12.6-6.9-19.2-10c-7-2.5-13.9-5.3-21.1-7.2c-2.6-1-5.3-2.2-7.9-3.2
			c-5.1-2.3-10.8-3.2-16.3-5c-4.1-0.4-7.6-2.9-11.7-3.5c-14.1-2.9-27.5-7.9-41.9-9.5c-5.1-0.3-9.7-2.8-14.8-3.1
			c-3.4-0.6-6.7-1.3-10.1-1.9c-2.9-0.9-6-0.9-9.1-0.9c-1.6,0-3.2-0.1-4.8-0.4c-3.1-0.6-6.2-0.9-9.2-1.5c-7.5-1.5-9.1-4.5-6.7-11.9
			c0.7-2.1,1.3-4.1,1.9-6.2c0.4-16.7,2.2-33.3,5.7-49.7c2.3-8.2,2.1-15.8-2.9-23.3c-5-7.5-6.2-16.7-9.7-24.9
			c-0.9-5.7-3.1-11-4.8-16.6c-0.7-5,0-9.7,2.5-14.1c3.7-6.6,1-13.8,1.2-20.8c0-2.3-0.9-4.8-1-7.2c-0.1-9.7-2.9-19.1-4.4-28.5
			c-1.9-8.2-1-16.9-5-24.8c-4.4-14.1-10-27.4-21.2-37.8c-1.8-1.6-2.9-3.8-4.1-6c-4.2-7.5-8.9-14.1-17.6-17.5
			c-7.9-3.1-11.3-11.9-18.2-16.4c-4.1-4-8.8-7-14.2-8.9c-4-3.8-9.5-5-13.8-8.4c-8.3-4.8-14.9-12.6-24-16.3c-1.8-1-3.5-2.2-5.4-2.9
			c-8.1-3.1-15.7-8.2-25-4.8c-2.5,0.9-5.4,1.3-7,3.7c-7.8,11.4-20.6,15.1-32.1,20.7c-9.8,4.8-20.5,7.5-31.2,10.4
			c-19.5,5.3-35.6,15.1-48,31.2c-6.9,8.9-16.5,15.1-25.3,21.9c-4.2,2.5-5.7,6.3-5.6,11c0.1,5.1,0,10.1,0,15.3
			c-0.7,10.7,1,21.3,3.1,31.7c1.6,8.2,7.3,4.8,12,4.5c7.5-1.3,13.6,0.4,17.4,7.6c1,1.6,2.1,3.5,3.8,4.4c9.4,5.1,13.2,13.9,16.3,23.5
			c2.6,9.5,5.9,18.9,8.6,28.5c4.7,16.3,6.6,32.9,7.6,49.6c0.1,2.6,0,5.4,1,7.9c1.8,6.3,4.2,12.5,3.4,19.2c-0.6,3.8-1.3,7.8-1.9,11.6
			c-1.2,4.1-1.3,8.4-3.1,12.3c-1.3,3.1-3.1,6-3.7,9.5c-1.3,7.5-5.7,12-13,13.9c-6.4,1.3-13.2-0.3-19.5,1.6
			c-6.3,0.3-12.4,1.2-18.6,1.8c-3.2,0-6.6-0.1-9.7,1c-16.8,2.2-33.7,4.1-50.4,7.2c-25,4-49.9,9.4-74.2,16.4
			c-12.9,2.5-24.9,7.5-37.2,12c-11.1,4-21.4,9.4-32.2,14.1c-5.4,2.3-7.5,1.2-8.1-4.7c-0.1-1.8,0-3.4,0-5.1
			c-0.1-54.4,0-109-0.1-163.4c-0.3-12.6-0.3-25.2,0-38c-0.4-19.9,0.4-39.9,0-59.8c-0.3-11.9-0.3-23.6-0.1-35.5
			c-0.3-21.7,0.1-43.6,0.1-65.3c-0.4-2.8,0.3-5.7,0-8.5c0.6-22.1-0.4-44.4-0.1-66.6c0-4.5-0.3-9.5,5-12c14.3-1.5,28.7-0.6,43-0.6
			c11.9,0,23.9-1,35.7,1.2c5.9,1.2,11.6-1.5,17.3-1.5c31.6-0.1,63.4-0.4,95,0c1.5,0,2.9,0,4.4,0c73.9,3.2,147.7-1.2,221.7,0
			c26.4-0.1,52.9-0.6,79.2-0.1c36.3-0.7,72.8-0.9,108.9,0.6c20.1,0.7,39.8-2.1,59.7-0.4c3.4,0.3,6.9-0.4,10,1.8
			c5.1,0.1,10.2,0.4,15.4,0.6c2.6,1.8,2.6,4.3,2.8,7c1.5,28,2,56,1,83.9c-0.4,11.9,0.1,23.6,0.6,35.5c0.1,3.4,0.4,6.9-2,9.8
			c0,18,0,36.1,0,54.1c0.3,0.3,0.4,0.7,0.3,1c-0.1,0.3-0.1,0.6-0.3,0.6c0,14.1,0,28.2,0,42.4c3.7,6.5-0.9,12.8,0,19.2
			c0,49.6-0.1,99.1-0.1,148.7c0,18.3,0.1,36.7,0.1,55c2.3,2.6,1.8,6,1.8,9.1c0.1,18.5,0,37,0.1,55.3c0.3,12.3,0,24.6-1.8,36.8
			c0,21,0,42.1,0,63.1c-1,22.1-0.4,44.4-0.3,66.6c0,3.5,1,7.8-4.4,8.5c-23.4,3.7-46.9,1.6-70.3,2.1c-24.2,0.3-48.2,0.3-72.3-0.7
			c-11.7-0.4-23.4,0.4-35,0.4c-51.4,0.3-102.8,0.1-154.2,0c-3.7,0-7.3,0.7-10.5-1.8c-19,0-38.1,0-57.1,0c-7-0.1-13.8,2.6-20.8,1.9
			c-25.2-0.3-50.5-0.1-75.7,0c-21.1,1.5-42-2.5-63.1-1.5c-28.8,0-57.5-0.1-86.4,0c-11.1,0-22.3,2.2-33.5,1.8
			c-12.2-0.6-14.2-2.1-14.2-14.1c-0.1-22.3,0-44.4,0-66.7C9.5,627,9.3,623.5,11.5,620.6z"/>
		<path fill="#C24000" d="M689.7,11.8c-59.6,0-119.2,0.1-178.8,0.1c-2.8-2.3-4-5.1-1.3-8.4c25.3,0,50.7,0,76,0
			c1.2,4.1,4.1,5.3,8.2,5.1c7.9-0.1,16,0,23.9,0c3.2,0,6.3,0.1,8.9,2.1c5.4,0,10.7,0,16.1,0c1.2-1,2.3-1.8,3.8-1.9
			c13-0.7,26.1-0.7,39.2,0c1.5,0,2.8,0.7,3.8,1.9C689.7,11,689.7,11.5,689.7,11.8z"/>
		<path fill="#EE8B00" d="M707.4,148.6c-0.1-41.9-0.1-83.9-0.3-125.7c0-3.7,0-7.3-2.2-10.6c4,0.9,3.5,4,3.5,6.9c0,7.5,0,14.8,0,22.3
			c2.2,2.3,2.3,5.3,2.3,8.2c0.1,18.6,0,37.4,0,56c0,3.2-0.6,6.3-2.3,8.9c0,4.5-1.3,9.5,5.1,11.6c3.2,1,2.1,4.5,2.1,7
			c0,19.2,0,38.4,0,57.6c0,2.9-0.1,5.9-0.1,8.8c-5.7,0.9-7.5-1.5-7.3-7.2c0.4-12.3,0.1-24.8,0.1-37.1
			C708.6,153.3,709.3,150.7,707.4,148.6z"/>
		<path fill="#EF9A01" d="M708.7,114.9c0-24.5,0-48.8,0-73.3c5.7-0.9,7.6,1.3,7.5,7.2c-0.4,18.5-0.3,37.1,0,55.6
			C716.2,110.2,715.2,114.1,708.7,114.9z"/>
		<path fill="#E86F00" d="M689.7,10.6c-15.7,0-31.2,0-46.9,0c-0.4-4.5,0.7-7.3,6.3-7.3c14.5,0.1,29,0,43.5,0
			C693.7,6.9,690.6,8.4,689.7,10.6z"/>
		<path fill="#E88700" d="M626.6,10.7c-12.2,0-24.3-0.4-36.5,0.1c-7.2,0.3-7.8-1.9-4.5-7.3c5.9,0,11.7-0.1,17.6-0.1
			c4.4,0,8.8,0.4,13,0C622.1,2.7,626,4.3,626.6,10.7z"/>
		<path fill="#E96700" d="M432,3.3c2.5,0,4.8,0.1,7.3,0.1c2.3,7.3-3.5,6.6-7.6,7.8c-0.9,0.1-1.8,0.1-2.5,0.1c-21.4,0-42.9,0-64.3,0
			c-4-2.2-0.7-3.1,0.9-3.5c4.5-1.5,9.2-2.3,13.6-4.4C396.9,3.4,414.4,3.4,432,3.3z"/>
		<path fill="#EC7300" d="M379.3,3.4c-3.7,6.2-10.8,4.5-16.1,7.3c-5.9,1.6-12,0.3-17.9,0.7c-4.1-1-8.3-1-12.4,0c-6-0.4-12,1-18-0.9
			c-1.2-2.9-4.4-3.7-7-7.2C332.2,3.4,355.7,3.4,379.3,3.4z"/>
		<path fill="#E66000" d="M344.2,10.7c6.3,0,12.7,0,19,0c23,0,45.8,0,68.8,0c0.3,0.3,0.4,0.6,0.3,0.7c-0.1,0.3-0.1,0.4-0.3,0.4
			c-45.8,0-91.7,0-137.6,0c-26.4,0-52.7,0.1-79.1,0.1c-1.9,0-4-0.1-5.9-0.1c1-3.8,4.4-3.1,7-3.2c4-0.3,8.1-0.3,12.2,0
			c7.3,0.4,14.8-1.8,21.8,1.8c21.4,0,42.9,0.1,64.3,0.1c6.3,0,12.7,0.1,19,0.1C337.3,9.6,340.6,9.6,344.2,10.7z"/>
		<path fill="#EF9000" d="M250.5,10.5c-7.3,0-14.5,0-21.8,0.1c-2.2-2.8-0.3-4.8,1.3-7c5.4,0,10.7,0,16.1-0.1
			C251.8,3,250.2,7.4,250.5,10.5z"/>
		<path fill="#E7B12F" d="M11.4,97.4c0,21.9,0,43.9-0.1,65.7c-4.5,0-6.3,2.3-6.3,6.7c0.1,10.4-0.1,20.7,0.1,31.1
			c0,9.8,0.1,19.7,0,29.5c-0.7,8.9,1.2,18-1.2,26.8c-0.4,0.9-1.2,1.3-2.2,1.2C1.6,204.2,1.6,149.9,1.4,95.7c0-2.5-0.1-4.8-0.3-7.3
			c0.4-1.9-0.1-4.3,1.5-5.9c1.5-0.4,2,0.6,2.3,1.8c0,8.8-0.7,17.7,0.6,27.7c3.1-2.9,2.2-5.7,2.6-8.1C8.9,101.5,7.8,98.3,11.4,97.4z"
			/>
		<path fill="#F2C555" d="M2,258.5c0.3,0.1,0.6,0.1,1,0.1c2.8,1.3,5.6-1.9,8.5,0c0,12.8,0,25.4,0.1,38.1c-0.4,0.4-1,0.9-1.6,1.2
			c-2.3,0.7-4.7,0.6-7,0.1c-0.3,0-0.6,0.1-0.9,0.1C2,285,2,271.7,2,258.5z"/>
		<path fill="#E85100" d="M432,11.9c0-0.4,0-0.7,0-1.2l0,0c5.7-1.6,12.6-0.6,16.1-7.2c20.1-0.1,40-0.3,60-0.3c0.4,0.1,1,0.3,1.5,0.4
			c-0.6,2.9,0.9,5.6,1.3,8.4C484.6,11.9,458.2,11.9,432,11.9z"/>
		<path fill="#EBBD00" d="M14.7,12.1c-3.8,1.9-3.2,5.6-3.2,8.9c0,23,0,46.1,0,69.1c-1,2.1-2.6,2.8-4.7,1.5c-2.3-1.6-2.6-3.8-1.3-6.3
			c4.1-10.7,4.8-21.6-0.7-32c-1-1.9-2.5-3.8-2.3-6c0.1-10.1-1-20.4,0.6-30.5c4.7-4.1,9.7-8.1,13.2-13.2c10.7,0,21.5,0,32.2,0
			c13.6,0,27.4,0,41,0.1c1.3,2.2,1.6,4.7,1.5,7.2c-2.2,1.5-4.7,0.7-7,0.7c-20.6,0-41.3,0-61.8,0C19.6,11.5,17.1,11,14.7,12.1z"/>
		<path fill="#F4D213" d="M3,16.6c0,8.8,0,17.5,0,26.3c0,2.2-0.7,5.1,1,6.3c10.2,7,5,17.5,6.1,26.4c0.3,2.9,0.3,5.9,0,8.8
			c-0.3,3.5-2.5,1.9-4.2,1.2c-0.9-0.1-1.3-0.6-1.5-1.5c-0.6-0.6-1.2-1-1.6-1.6c-2.3-22-0.9-44-1-65.9C2.3,16.6,2.6,16.6,3,16.6z"/>
		<path fill="#ED8B01" d="M14.7,12.1c2.2-2.2,5.1-1.2,7.6-1.2c22.8-0.1,45.7-0.1,68.4-0.1c2.3,0,4.8-0.1,7.2,0.1
			c6.1,0.4,7.2-2.2,4.7-7.3c25.8,0,51.5-0.1,77.5-0.1c5.4,0,10.8,0,16.3,0c1.5,0,2.9,0.1,4.4,0.1c2,1.3,4.4,2.1,6.1,3.8
			c1.5,1.6,2.3,3.2-0.3,4.5c-44.7,0-89.3,0-134,0C53.4,12.1,34.1,12.1,14.7,12.1z"/>
		<path fill="#E66000" d="M448.1,3.6c0.9,5.9-1.6,7.9-7.3,7.2c-2.9-0.3-5.9,0-8.8,0c2.9-1.9,7.5-2.2,7.3-7.2c1-0.1,1.9-0.1,2.9-0.3
			C444.2,3.3,446.1,3.4,448.1,3.6z"/>
		<path fill="#E87101" d="M206.5,11.9c2-5.6-5.6-4.4-5.9-8.4c9.7,0,19.5,0,29.1,0c-0.4,2.3-0.9,4.7-1.3,7c-6.3,1-12.9-1.2-19,1.3
			C208.6,11.9,207.6,11.9,206.5,11.9z"/>
		<path fill="#E9490E" d="M714.6,477.1c2.2,1.9,1.3,4.5,1.3,6.9c0,30.1,0,60,0,90.1c0,1.2,0,2.5,0,3.7c-0.1,1.9-0.9,3.4-3.1,3.2
			c-2.2-0.1-2.8-1.6-2.8-3.5c0-5.1,0-10.3,0-15.4c-1.8-2.1-1.5-4.5-1.3-7c0.4-19.9,2.2-39.9,2.6-59.8
			C714,489.5,710.3,482.6,714.6,477.1z"/>
		<path fill="#FAA001" d="M713.1,494.9c0.4,22.4-2.6,44.7-3.1,67.3c-2.9,2.3,0,6.5-2.5,8.8c0-12.2,0-24.5,0-36.7
			c1.2-14.8,0.1-29.6,0.4-44.4c0-4,0-7.8,0-11.7c0-3.1,0.3-6.7,4-6.6c3.5,0.1,1.8,4,1.8,5.9C713.6,483.2,714.4,489,713.1,494.9z"/>
		<path fill="#F59700" d="M711.7,418.5c2.1,12.2,3.7,24.5,3.1,37c0,1.3,0.7,2.8,1.2,4.1c-5.3,0.6-7.3-1.6-7.2-7
			c0.3-13.2,0.1-26.5,0.1-39.7C711.1,413.9,709.2,417.2,711.7,418.5z"/>
		<path fill="#F58D03" d="M713.1,494.9c0-7.5,0-14.8,0-22.7c-5,1.8-4.5,5.1-4.5,8.2c0,15.4,0,30.8,0,46.2c0,2.6,0.9,5.4-1.2,7.8
			c-0.1-21.6-1.2-43.1,0-64.5c1.3-1,1-2.5,1.3-4c0.4-1.8,1.5-3.1,3.4-2.9c2.3,0.1,2.2,2.1,2.3,3.7c0,3.5,0,7.2,0,10.7
			C713.9,483,715.9,489.2,713.1,494.9z"/>
		<path fill="#E04200" d="M707.6,265.9c0-6.5,0-12.8,0-19.2c1.8-1,3.7-2.2,5.4-3.2c2.3-1.5,2.8,0.1,3.2,1.9
			c-0.3,2.3,0.7,5.3-1.9,6.5c-6.6,2.9-5.6,8.7-5.6,14.1h-0.6H707.6z"/>
		<path fill="#F2C902" d="M351.3,717.5c-10.2-4.3-21.5-3.1-31.9-7.2c13.6,0,27.2,0,40.9,0c0.9-0.6,1.8-0.7,2.8-0.7
			c36,0.1,72-0.3,108.1,0.1c2.8,2.5,2.3,5.1,0.4,7.8C431.4,717.5,391.5,717.5,351.3,717.5z"/>
		<path fill="#F1AA07" d="M471.4,710.3c-37,0-74.1,0-111.3,0c0-0.4,0-0.7,0-1.2c58.7-0.1,117.3-0.4,176-0.4
			c32.1,0,64.3,0.3,96.3,0.4c3.8,2.2,3.7,5.1,1.5,8.4c-16.4,0-32.8,0.1-49.2,0c-1.5,0-5.9,1.3-2.2-2.9c0.7-1.6,0.7-2.8-1.5-2.9
			c-3.1,0-6.1,0.6-9.4,0.4c-2.5,0-5,0.1-7.5-0.3c-1.8-0.3-3.4-1.8-5.1-0.3c-8.3,0-16.5,0-24.9,0c-17.4,1.5-35,0.7-52.6,0.9
			C478.3,712.5,474.5,713,471.4,710.3z"/>
		<path fill="#EF7F04" d="M634.1,717.5c-0.1-2.9,0.4-5.9-1.5-8.4c23.4,0,46.7,0,70.1,0c-2.1,2.2-5,0.4-7.5,1.8
			c0.1,4,5.3,3.5,6.1,6.7C678.9,717.5,656.5,717.5,634.1,717.5z"/>
		<path fill="#F1B403" d="M471.4,710.3c18.7,0,37.5,0,56.2,0c2.3,0,5-0.7,6.9,1.5c-11.9,5.6-24.6,6.5-37.5,5.9
			c-8.5-0.3-17-0.1-25.5-0.1C471.5,715.2,471.4,712.7,471.4,710.3z"/>
		<path fill="#F0B802" d="M572.4,710.3c4.4,0,8.8,0,13.2,0c0.7,2.8-1.3,3.4-2.9,4.4c-1.6-2.1-3.5-1.6-5,0c-4,4.4-9.1,2.3-13.6,2.9
			c-5.1,0.7-0.1-6.5-4.8-5.9c1-1.8,2.8-1.5,4.4-1.5C566.7,713,569.5,712.5,572.4,710.3z"/>
		<path fill="#EE9101" d="M11.5,620.6c0.1,26.3,0.4,52.7,0.1,78.9c0,7,2.3,9.4,9.2,9.2c40.8-0.1,81.7,0,122.7,0.1
			c0.4,0.3,0.6,0.6,0.4,0.7c-0.1,0.3-0.3,0.4-0.4,0.4c-22,0-43.9,0-65.9,0c-14.8-0.3-29.4-0.4-43.6,6c-8.3,3.8-18.3,1.3-27.5,1
			c-4.4-0.1-3.5-4.5-3.5-7.6c0-31.5,0-63.1,0-94.6C7.6,614.3,7.7,620.3,11.5,620.6z"/>
		<path fill="#EF8B00" d="M143.6,710.2c0-0.4,0-0.7,0-1.2c20.9,0,42,0,63,0c0.4,0.3,0.9,0.7,1.5,1c1.6,0.7,3.7,0.7,3.1,3.4
			c-0.7,0.9-1.8,1.5-2.8,2.2c-0.6,0.6-1.2,1.2-1.9,1.8c-2.9-6.3-8.9-5.4-13-3.8c-11.6,4.4-23.4,3.7-35.1,4c-1-0.9-0.4-2.3,0.3-2.2
			c4.8,0.4,8.2-3.5,12.4-5.1C161.9,710.2,152.8,710.2,143.6,710.2z"/>
		<path fill="#EA8B00" d="M10.3,296.9c0.4-0.1,0.7-0.1,1.2-0.1c0.1,26,0.3,51.8,0.3,77.7c0,28.3,0,56.8,0,85.1c0,3.4,0.3,6.7,0.6,11
			c13-7,25.3-13.6,38.9-17c1.2,2.9-0.7,6,0,8.9c-11.1,3.2-22.3,6.7-33.4,9.7c-5,1.3-6.3,3.7-6.3,8.7c0.1,41.2-0.1,82.4-0.3,123.8
			c-2.3-9.1-0.4-18.5-1-27.6c-2.5-2.8-2.3-6.3-2.3-9.7c0-15.8-0.3-31.5,0.1-47.4c0-9.7,0-19.5,0.1-29.3c0-4-1.3-6.5-5.3-7.6
			c0-6.3,0-12.6,0-18.9c4-4.4,5-10,5-15.5c0.3-14.1,0-28.2,0.1-42.2c0-4.4-1.8-7.3-5.1-9.7c0-9.8,0-19.5,0-29.3
			c4.4-2.1,5.1-5.9,5.1-10.3c-0.1-16.6-0.1-33,0-49.6C8.1,303.6,7.6,299.8,10.3,296.9z"/>
		<path fill="#EEA804" d="M10.3,296.9c0,21.6-0.3,43.1,0.1,64.7c0.1,6.3-1.9,7.8-7.3,5.6c0-23-0.1-46.1-0.1-69.1
			C5.1,295.7,7.8,297,10.3,296.9z"/>
		<path fill="#ED9802" d="M3,396.5c5.6-0.9,7.6,1.3,7.5,7.2c-0.4,15.3,0.3,30.7-0.4,45.9c-0.3,5.1,2.1,12.9-7,14.4
			C3,441.4,3,418.9,3,396.5z"/>
		<path fill="#EE8C00" d="M10.3,518.1c0,19.5,0,39.2,0,58.7c-5.6,2.3-7.6,0.9-7.5-5.4C3.3,556,3,540.8,3,525.5
			C5.4,522.9,5.2,517.9,10.3,518.1z"/>
		<path fill="#F0A503" d="M10.3,518.1c-3.4,1.6-3.7,6.2-7.3,7.3c0-14.2,0-28.5,0-42.5c5.9-3.8,7.5-1.5,7.3,4.7
			C10.2,497.7,10.3,507.9,10.3,518.1z"/>
		<path fill="#EA8203" d="M206.5,717.4c0-0.9,0-1.9,0-2.8c5.1-1.5,10.2-2.3,15.7-2.1c2.8,0.1,5.3-0.3,7.6-1.9
			c3.4-0.7,6.7-0.3,10.1-0.4c6.9-0.9,13.9-0.7,20.9-0.7c3.1,0.7,6.1,1.2,9.2,0c4.2-0.4,8.5,0.6,12.6-0.6c6.9,0,13.6,0,20.5,0
			c-24.9,11.4-51.4,8.2-77.5,8.5c-5.9,0-11.7,0-17.7,0.1C207.4,717.7,207,717.5,206.5,717.4z"/>
		<path fill="#EE8B00" d="M707.4,204.3c0-0.6,0-1,0-1.6c1.2-0.4,2.5-1.9,3.7-0.3c0.7,1,0.4,2.3-0.4,3.2
			C708.7,207.3,708.6,204.8,707.4,204.3z"/>
		<path fill="#EFC500" d="M214,163.3c11.3-8.9,21.7-18.6,31.2-29.6c10.5-12.5,25.2-19.1,40.7-23.3c17.4-4.7,34.4-10.6,50.4-19.2
			c4.5-2.5,8.6-5.3,11.6-9.7c3.8-5.6,16-9.2,22.1-6.7c4.7,1.9,9.2,4.3,13.9,6.3c0.9,3.7-2,5.3-4.1,7c-19,17-39.2,32.9-58.4,49.9
			c-18.3,16.1-36.9,31.8-55.2,48c-4.7,4.3-10.4,7.3-14.5,12.2c-1.2,1.5-2.9,1.8-4.7,1.2c-0.6-0.3-1.2-0.7-1.5-1.5
			c-5.1-8.4-12.3-15-19-21.9C222.9,171.1,216.3,169.3,214,163.3z"/>
		<path fill="#EFA900" d="M246.1,198.5c7.9-3.4,13.6-9.7,19.9-15c24.9-21.1,49.3-42.8,74.1-64.1c12.7-10.9,25.6-21.4,38.5-32.3
			c2.1-1.8,3.5-4,5.3-6c1.9,0,3.4,0.7,4.5,2.3c2.8,2.8,1.9,5.3,0.4,8.5c-4.8,10.1-11.7,18.9-17.1,28.7c-7.8,14.5-18,27.6-25.3,42.2
			c-9.5,18.9-22.3,35.9-31.8,54.9c-1.5,2.8-2.9,5.6-3.1,8.9c-3.2,7-6.4,13.9-13.6,17.9c-7.8-5.6-14.1-12.8-21.7-18.5
			c-3.7-4.7-9.1-7.8-12.9-12.3c-4.2-4.7-8.9-8.7-14.3-11.9c-1-0.3-1.9-0.7-2.6-1.3C245.6,199.8,245.6,199.1,246.1,198.5z"/>
		<path fill="#EE7400" d="M440.9,117.7c9.4,11.9,24.7,17,33.4,29.6c0.9,1.3,1.8,2.8,2.6,4.3c-1.5,7.3,0.6,15.3-3.7,22.1
			c-3.2,5.1-7.3,9.7-10.1,15.1c-2,3.8-3.2,7.5-3.1,11.7c0.4,8.7-0.7,17-3.2,25.2c-0.9,2.8-1.6,5.9-0.6,8.7c2.5,6.2,3.1,12.8,5,18.9
			c0.3,0.7,0.4,1.5,0.4,2.2c-1.5,3.8-3.8,6.9-7.2,8.9c-9.5,5.7-15.7,2.3-15.8-9.1c-0.1-9.7-0.1-19.5,0.3-29.3
			c0.3-6.2-2.2-12.3-3.2-18.5c-0.3-1.9-1.5-3.8-1-5.7c3.2-13.9-1.2-27.6-2.3-41.2c0.4-6.7-1.6-13.3-1.3-20.1
			c0.4-7.6,5.3-13.9,6.1-21.4C437.6,118,439.2,117.1,440.9,117.7z"/>
		<path fill="#ED7800" d="M461.1,254.2c-1.8-0.1-4-0.7-3.4-2.8c1.6-5.9-1.5-10.4-3.2-15.3c-2.6-7,2-13.2,2.8-19.9
			c0.4-3.7,1.5-7.2,1-10.9c-1.6-11.9,4.1-20.8,11.3-29.2c3.8-4.4,5-10,5-15.8c0-2.9-2.2-7,2.5-8.8c10.8,13.2,21.7,26.4,25.3,43.9
			c1.5,5.6-2.2,9.4-5,13.1c-10.7,14.2-21.1,28.6-31.6,42.8C464.7,252.7,463.8,254.8,461.1,254.2z"/>
		<path fill="#F0B000" d="M529.7,440.6c-16-1.5-31.8-3.1-47.7-4.3c-11.1-0.9-22.3-1.2-33.5-1.8c-3.1-0.1-6.3,0.7-9.2-1
			c-4.4-8.5-5.9-18.2-9.7-26.8c-0.3-6.3,2.2-11,7.3-14.5c7.6,0.7,8.2,2.1,5.9,12.6c-1.8,4.3,0,6.3,4.4,6.7c7,0.6,14.1,1.2,20.9,1.6
			c7.8,0.6,15.4,1.3,23,2.6c8.1,1.5,10.1,0.1,13.5-7.3c1.3-2.9,2.8-5.7,5.1-7.9c6-2.3,7.6-1.5,12,6c0.6,3.1-1,5.4-2.5,8.1
			c-2.2,3.8-1.2,6.5,3.5,7c4.1,0.6,8.3,0,11.9,2.3c7.6,4.7,7.8,5.3,0.9,11C533.2,437,534.1,441.6,529.7,440.6z"/>
		<path fill="#EFA000" d="M310.5,226.3c-2.2-3.4,0.3-5.9,1.8-8.4c8.9-15,19.2-29.3,26.5-45c4.4-9.5,12.9-16.7,14.9-27.6
			c0.6-3.1,4.7-5.4,6.6-8.5c5.1-8.1,9.2-16.9,14.1-25.1c4.1-7.3,9.2-14.2,13.3-21.6c1.5-2.5,1.3-4.4,0.7-6.7
			c9.7,3.4,16.4,11,24.5,16.9c-1.8,2.8-4.7,4.5-6.7,7.2c-22.8,29.8-45.5,59.7-69.1,88.9c-7,8.7-13.9,17.5-20.9,26.3
			C314.7,224.4,313.6,227.1,310.5,226.3z"/>
		<path fill="#F6CA00" d="M405.7,106.1c1.8-2.6,3.5-5.4,7-5.9c4.4,3.1,10.5,3.4,13.6,8.5c2.3,1.6,3.5,4.1,3.4,6.9
			c-0.4,12.5,2,24.6,1.5,37.1c1.3,22.6,2.9,45,3.7,67.6c-2.5,7.6-8.2,11.7-17,12.3c-3.7-3.2-2.3-7.6-2.3-11.7
			c0.1-16.3,0.4-32.7-1.6-48.8c-0.9-6.6-4.7-12.3-5.7-18.9c-0.4-2.6-1.6-5.4-0.1-7.9c4.2-7.8,1.8-15.1-1.2-22.4
			C404.6,117.5,402,111.9,405.7,106.1z"/>
		<path fill="#EFBD00" d="M199.2,167.5c2.6,1.8,1.5,4.4,1.5,6.6c0.1,11.7,0,23.5-0.1,35.2c0,4.4,0.3,8.4,2.5,12.6
			c3.5,6.7,1.9,13.8-1.2,20.5c-0.1,5.1-1,9.4-7.3,10.4c-3.8,0.6-5.4,4.7-7.6,7.5c-2,2.6-3.8,5.7-6.4,7.8c-4.5,3.7-7.8,2.1-9.2-4.1
			c5.6-12.5,2.3-26,4.7-38.4c3.5-18,1.5-35.8,2.6-53.7c0.1-2.1-0.6-4.7,2.9-4.5c1.9,4.3,0.1,8.7,0.7,12.9c0.4,4.7,5.1,7.6,11.4,7
			c4.7-0.3,3.1-4.1,3.5-6.7C197.7,176.5,195.8,171.6,199.2,167.5z"/>
		<path fill="#F28F00" d="M512.2,249.8c3.4,7.6,0.4,15.8,2.8,23.6c0.3,0.9-0.6,2.3-1.3,3.2c-3.8,4.7-4.7,10-4.1,15.7
			c-8.9-11-19.8-6.3-30.2-3.5c-2.2,0.9-4.4,1.6-6.7,1.2c-9.1-3.1-18-1.2-27.1,0.4c-1.8-0.3-2.6-1.5-2.9-3.1c0.4-5.1,4.5-7.2,8.3-9.2
			c6.4-3.4,12.7-7,18.6-11.3c5-2.5,9.7-5.6,14.8-7.8c6.3-4.8,13.6-7.9,20.2-12.3C508.3,243.9,511.8,243.7,512.2,249.8z"/>
		<path fill="#F1D400" d="M102.4,125.3c-7.6-1.6-11.6-9.4-19.3-11.3c-6.3-1.5-12.4-3.8-19-4.3c-9.1-0.6-12.9-6.7-9.4-15.3
			c2.3-5.6,5-11.3,12.3-12.2c14.9-3.8,26.9,1.6,37.6,11.6c0.3,0.7,0.4,1.6,0.4,2.5c-0.9,6.7,0,13.5-0.3,20.2
			c-0.1,2.6,0.1,5.3-1.3,7.8C103,124.7,102.7,125,102.4,125.3z"/>
		<path fill="#F0AB00" d="M86.5,441.9c20.1-6.7,40.6-11.1,61.3-14.7c4.2-0.7,8.6-1.2,12.9-1.8c6.7-1.3,12.3,0,16,6.3
			c-2.8,7-9.7,8.4-15.5,11.1c-24.5,4-48.8,7.8-73.2,11.7C85.4,450.7,84.7,446.5,86.5,441.9z"/>
		<path fill="#EE9000" d="M377.8,431.4c-16.1,0-32.2,0-48.3,0c-4.8-10-2.9-19.2,4.4-23.2c22.1-1.6,44.2-1.5,66.2,1.2
			c2.5,0.9,4.2,2.5,1.2,4.4C392.8,418.8,386.3,426.5,377.8,431.4z"/>
		<path fill="#F2C500" d="M171.5,170.3c3.1,4,1.2,8.4,1.2,12.6c0.3,12.3,0.9,24.8-1.2,37c-0.9,5.4-2.9,6.9-7.8,3.7
			c-4.2-2.9-9.7-4.5-13.2-8.8c-4.1-8.4-2.6-17.9-6-26.4c-1-1.9-2.1-3.7-3.4-5.3c-0.4-0.6-0.9-1-1.3-1.6c-1.6-1.5-3.2-2.9-4.8-4.5
			c-7.8-7.5-7.8-13.6-0.1-21.9c1.2-1.2,2.3-2.5,3.7-3.7c5.4-4.8,6.3-4.5,9.2,2.6c1.2,5.7-0.3,11.6,1.2,17.2c0.4,2.2,0.6,4.4,0.6,6.5
			c-0.1,2.9,0.9,5.1,4.1,5.7c0.6,0.1,1.3,0.3,1.9,0.4c4.4,0.7,8.8,1.9,13-0.3c0.4-2.1-0.4-3.8-0.6-5.7
			C168.2,175,168,171.9,171.5,170.3z"/>
		<path fill="#ED9A00" d="M514.1,307.9c5.4,11,7.5,23.3,14.8,33.6c2.5,3.4,0,9.2-1.8,13.8c-2.6,5.3-2.2,11.6-6.3,16.4
			c-5.3,6.2-5.4,6.5-11.1,0.1c-1.2-1.6-1.8-3.4-2-5.4c-1.9-14.8-4.2-29.6-12.3-42.8c-1.2-1.9-1.6-4.1-1-6.3
			C500.5,313.3,506.5,308.9,514.1,307.9z"/>
		<path fill="#D25B00" d="M484.7,260.1c-4.8,2.5-8.9,6.5-14.6,7.3c-6.4-1.3-9.1-5.6-8.9-11.9c0-0.4,0-0.9,0-1.5
			c10.1-13.8,20.1-27.7,30.3-41.2c4.2-5.6,9.1-10.6,10.8-17.6c5.1,7.6,3.8,16.7,5.4,25.1c-7.3,7.5-12.4,16.4-16.5,26
			C489.1,251,487.2,255.7,484.7,260.1z"/>
		<path fill="#F1BA00" d="M246.1,198.5c0,0.4,0,1,0,1.5c1.2,2.6,0.3,5.1-1.3,6.7c-7.2,7.2-12.7,15.8-20.6,22.4
			c-3.1,2.1-6.6,1.5-10,1.8c-2.6,0.3-4.1-1.2-4.4-3.8c-0.9-12-5.6-23.6-3.1-35.9c1-0.9,2.2-1.3,3.5-1.3c9.2,1.9,18.7,2.1,28.1,3.5
			c2.9,0.4,5.9,0.9,7.6,3.5C246.1,197.5,246.1,198,246.1,198.5z"/>
		<path fill="#FDFDFD" d="M181.6,524.5c-2.9,7.6-5.3,13.8-7.6,19.8c-1,2.5-1.8,4.8-5.4,4.7c-4.4-0.3-3.4-3.8-3.8-5.9
			c-2.6-12.2-4.5-24.5-5.7-36.8c-0.1-2.2-1.2-4.4,2.6-4.4c2.9,0,5,0,5.3,4c0.7,9.7,2,19.2,3.2,30.4c4.1-6.9,5.3-13.3,7.5-19.5
			c0.7-2.1,0.6-4.8,4.4-4.7c3.7,0.1,3.4,2.8,4.1,5c1.9,6,4,11.9,7.3,17.7c1.2-9.2,2.2-18.5,3.2-27.9c0.3-3.2,0.6-5.6,5-5.1
			c5.1,0.6,2.5,3.8,2.3,5.9c-1,12.5-3.2,24.6-5.9,36.8c-0.4,2.1-0.1,4.4-3.4,4.5c-3.1,0.1-4.4-1.2-5.3-3.7
			C186.9,538.9,184.6,532.6,181.6,524.5z"/>
		<path fill="#FEFEFE" d="M413,518.9c0-8.5,0.1-17.2,0-25.7c0-3.2,0.4-5.1,4.2-5.1c4.5,0,9.2-0.9,13.8-0.7
			c12.3,0.4,19.8,7.3,20.1,18.6c0.3,12.3-6.7,19.9-19.5,20.8c-10.5,0.9-10.5,0.9-10.5,11.6c0,2.2-0.1,4.4,0,6.6
			c0.4,3.5-1.5,3.8-4.4,4c-2.9,0-3.8-0.9-3.7-3.8C413,536.4,413,527.7,413,518.9z"/>
		<path fill="#FDFDFD" d="M468.2,528.5c1.6,10.9,9.8,15.3,22,12.8c1.9-0.3,5-4.7,6.6,0.9c1.6,5.4-2.3,5.3-5.6,6
			c-20.6,4.5-34.4-7.5-31.6-27.6c1.8-12,12.6-20.1,24.7-18.5c10.5,1.5,17.3,11.3,16.5,23.2c-0.3,3.5-2,3.2-4.2,3.2
			C487.2,528.3,477.7,528.5,468.2,528.5z"/>
		<path fill="#FDFDFD" d="M133.5,487c3.5,0.6,7.2,1,10.7,2.1c2,0.6,5.1,0.7,3.8,4.5c-1,3.4-2.5,4-5.7,2.5c-4.1-1.8-8.5-2.2-12.9-1
			c-3.4,0.9-6.4,2.6-7,6.6c-0.6,3.8,0.9,6.9,4.2,8.7c4.5,2.3,9.2,4.3,13.8,6.5c8.5,4.1,11.7,9.8,10.5,18.8
			c-0.9,6.9-5.6,11.1-14.6,12.9c-6.9,1.3-13.5,0.1-20.1-2.1c-3.4-1.2-3.8-2.5-2.8-5.9c1.3-4.3,3.5-2.2,5.3-1.2
			c4.8,2.5,9.8,2.9,14.9,2.1c3.8-0.6,7.6-1.9,8.6-6.6c1-4.8-1.2-8.2-5-10.3c-4.4-2.5-9.4-4.1-13.9-6.3c-5.4-2.8-9.5-6.6-9.7-13.3
			C113.6,493.7,120.7,487.3,133.5,487z"/>
		<path fill="#EE8D00" d="M279.7,368.6c0.1-6.5-1.5-12.5-3.2-18.5c-0.9-2.8-0.4-5.7-0.4-8.5c5.3-5,11.4-8.8,17.3-13.1
			c3.2-2.2,6.1-4,9.4,0c2.8,18.3,5.1,36.7,2.8,55.3c-0.7,1.3-1.8,1.6-2.9,0.6c0-10-5.3-13.8-14.8-13.2
			C285.2,371.2,282.1,370.8,279.7,368.6z"/>
		<path fill="#EF8C00" d="M333.9,410c-3.1,1.3-4.8,3.2-4.5,7c0.4,4.8,0.1,9.7,0.1,14.4c-6.3,0.1-12.6,0.3-18.9,0.4
			c-5,1.3-10.1,0.7-15.2,0.4c-6.7-0.3-12.3-8.9-12-18c4.1-4.4,9.5-5,15.1-5c2.9,0,5.7,0.4,8.6,0c5.6-0.3,11.1-0.6,16.5-1.3
			C327.2,407.3,331,406.7,333.9,410z"/>
		<path fill="#B66200" d="M263.6,213.1c5,3.4,10,6.6,13.3,11.6c-6,3.8-3.2,9.1-3.4,14.5c-0.3,11.9,3.8,23.2,3.1,34.9
			c-1.5,5.6-5.3,10-7.2,15.3c-0.4,0.6-0.9,1.2-1.5,1.5c-3.4-9.1-6.9-18.3-8.6-28c0.7-4.8-1.5-9.2-2.3-13.9c-0.9-4.3-1.9-8.4,0-12.6
			c2.9-2.9,1-6.3,0.6-9.5C256.6,219,258.1,215.3,263.6,213.1z"/>
		<path fill="#FDFDFD" d="M314.7,537.9c6.6,2.8,13,4.8,19.9,3.5c2.6-0.4,5.7-1.2,6-4.4c0.4-3.2-2.2-4.7-4.7-5.7
			c-4.2-1.6-8.6-3.1-12.9-4.8c-5.4-2.3-10.1-5.6-9.4-12.3c0.6-6.7,5.3-9.8,11.6-11.3c6.1-1.3,12-0.4,18,0.4c4.1,0.6,3.7,2.6,3.1,5.6
			c-0.7,4.3-3.2,2.3-5.1,1.8c-4.2-1.3-8.6-1.6-13-0.9c-2.6,0.3-5.6,0.9-6.1,4.3c-0.6,3.5,2.3,4.5,4.7,5.6c4.4,1.9,9.1,3.2,13.6,5.3
			c5.7,2.5,10,6.5,8.9,13.5c-1,6.6-5.9,8.9-11.7,10.1c-5.9,1.2-11.6,1-17.3-0.1C314.3,547,310.8,544.8,314.7,537.9z"/>
		<path fill="#FDFDFD" d="M264.8,538c6,1.9,12,4.5,18.7,3.5c3.1-0.4,6.9-0.9,7.3-4.7c0.4-3.5-2.8-4.8-5.6-5.9
			c-4.7-1.9-9.7-3.4-14.2-5.6c-4.7-2.2-8.1-5.9-7.3-11.4c0.6-5.7,4.1-9.1,9.5-10.6c6.7-1.9,13.3-1.2,20.1,0c4.2,0.7,3.4,2.9,2.9,5.7
			c-0.6,3.7-2.5,2.5-4.5,1.8c-4.7-1.6-9.5-1.9-14.3-1c-2.3,0.4-4.8,1.2-5.4,4.1c-0.4,3.1,2,4.3,4.2,5.3c4.8,2.1,10,3.8,14.8,5.9
			c5.6,2.5,9.1,6.5,8.1,13.1c-1,6.3-5.6,8.7-11.1,10c-6,1.3-12,1.2-18,0C264.2,547,261.1,544.5,264.8,538z"/>
		<path fill="#F08700" d="M306.5,410.8c-7.5,0.6-15.2-0.1-22.4,3.1c-6.6-3.7-10.5-13.8-8.9-22.4c0.9-4,1-8.1,2.9-11.6
			c5.6,1,11.1,1,16.7,1c2.9,0,5.9,0,8.2,2.2c0.4,0.4,1,1,1.5,1.5c3.7,1.8,4.1,5.6,2.9,8.2C304.8,399,305.2,404.8,306.5,410.8z"/>
		<path fill="#EC6600" d="M275.2,391.6c0.4,8.5,4.7,15.4,8.9,22.4c3.1,14.4,6.7,17.6,20.6,17.6c1.9,0,4,0.1,5.9,0.1
			c-13,2.6-26.2,1.2-39.4,1.5c-6.6,1.9-12,0.1-16.4-5.1c-0.4-0.6-0.6-1.3-0.6-2.1c1.8-4.3,2.9-8.8,6.3-12.2c6-1.6,9.4-5.6,10.1-11.7
			C271.1,398.1,273.3,395,275.2,391.6z"/>
		<path fill="#EF9F00" d="M514.1,307.9c-6.1,3.4-11.7,7.9-18.9,9.2c-4.5-2.8-5-8.1-6.9-12.3c-2.3-5.1-4-10.3-8.8-13.8
			c-1-0.7-1.5-1.9-0.9-3.2c0.3-2.6,2-3.1,4.1-2.9c4.8,0.3,9.5-1.2,14.3-1.8c7.6-0.9,11,2.2,12.3,9.1
			C512.7,297,514,302.3,514.1,307.9z"/>
		<path fill="#EF8B00" d="M175.8,433.1c-3.7-5.1-8.9-7.2-15.1-7.6c10.8-3.8,22.3-3.4,33.2-5.4c5.9-1,11.9-2.8,17.9-1.8
			c2.3-0.4,5.1-1.8,6.6,0.7c1.6,2.6-0.4,5.1-2.2,7.2c-3.7,4.3-8.2,7.6-11.3,12.3c-7.3-0.4-14.5,2.5-22,1.6
			C179.9,438.6,177.4,436.4,175.8,433.1z"/>
		<path fill="#FEFEFE" d="M598.2,539.6c2.6,5.6,0.3,7.8-5.1,8.9c-11.6,2.3-18.7-2.6-19.2-14.4c-0.4-12.6-0.6-25.4-0.1-38
			c0.3-6.7-0.9-10.1-8.5-8.8c-1.6,0.3-4.4,1.3-4.8-1.5c-0.4-2.5-1.8-6.3,3.5-5.9c0.4,0,1,0,1.5,0c16.4-0.4,16.4-0.4,16.4,16
			c0,10.3,0,20.5,0,30.8C581.8,542,584,543.7,598.2,539.6z"/>
		<path fill="#EB9F00" d="M134.9,89.8c5.1,5.6,6.9,12.6,8.8,19.7c2.3,8.7,3.7,17.6,7.6,25.7c-8.3,5.7-8.3,5.6-13.5-4.8
			c-1.5-3.1-2.5-6.3-5.1-8.8c-2.5-2.5-2.6-6.2-4.5-9.1c-0.7-1.8-1.8-3.4-2.9-4.8c-1.2-2.2-1.9-4.7-3.1-7c-0.3-0.6-0.4-1.2-0.7-1.9
			c-0.4-1.3-0.7-2.5-1-3.8c-0.1-2.5,0.6-4.7,1.8-6.9C127.3,82.8,130.8,88.8,134.9,89.8z"/>
		<path fill="#F0BC00" d="M123.1,88.5c-0.4,2.3-1,4.8-1.5,7.2c-5.1,2.8-10.4,0-15.5,0c-0.7-0.3-1.5-0.9-2-1.3
			c-11.3-7.5-23-13.3-37.2-12c5.9-4.1,12.6-2.2,19-2.6c6.1-0.4,12-1.3,17.4-4.1c5.1-2.6,10.1-2.8,15.2-0.3
			C127.2,77.6,127.9,80,123.1,88.5z"/>
		<path fill="#FAFAFA" d="M216.5,625.3c1.3-4.4,2.6-8.7,4.1-13.1c0.4-1.6,0.7-3.2,3.1-3.2c2.5,0,3.4,1,4,3.2
			c1.2,4.4,2.8,8.7,4.1,13.1c0.6,0,1.3,0,1.9,0c0-7.9-0.3-16,0.1-23.9c0.1-2.8-2.3-8.1,2.6-8.1c5.7,0,2.5,5.3,2.3,7.8
			c-0.1,9.5-0.9,19.1-1.9,28.5c-0.3,2.5,1.6,6.9-3.5,7.3c-4.5,0.4-3.7-4-4.5-6.2c-1.8-4.4-2.8-9.1-4.8-15.7
			c-2.3,7.5-4.1,12.9-5.6,18.5c-0.7,2.5-1.6,3.8-4.4,3.7c-3.1-0.1-2.6-2.5-2.8-4.3c-0.9-11.9-1.6-23.9-2.3-35.8
			c-0.1-1.8-0.7-4,2.5-4.1c3.1-0.1,2.9,1.8,2.9,3.8c0,9.5,0,19.1,0,28.5C215,625.3,215.8,625.3,216.5,625.3z"/>
		<path fill="#F3D001" d="M146.2,153c-1.8,0-0.1-5.6-4.1-2.3c-6,5-10.4,11-12.2,18.8c-0.3,1.2,0.4,1.9,1.3,2.2
			c4.7,1.9,6.6,6.9,10.8,9.2c-0.7,0.7-1.6,1.5-2.5,1.3c-5.4-1.2-8.5,1.6-10.7,6c-7.3-10.1-9.7-22-12.7-33.7c0.7-1,1.9-1.5,3.1-1.9
			c4.7-1.8,7.3-4.8,5.6-10.3c6.6-2.9,13.5-2.3,20.5-1.5C147.5,144.8,149.6,148.6,146.2,153z"/>
		<path fill="#FAFAFA" d="M515.6,526.4c0-4.4,0.4-8.8-0.1-13.2c-1-7,2.5-9.2,8.6-10.1c7-1,13.9-1.8,20.9-0.4
			c2.8,0.4,3.7,1.2,2.9,4.3c-0.6,2.3-0.9,3.5-4.1,3.2c-19.9-1.9-19.9-1.9-19.9,17.7c0,5.6-0.1,11.1,0,16.9c0.1,2.8-0.3,4.5-3.8,4.4
			c-3.2-0.1-5-0.6-4.7-4.4C515.9,538.6,515.6,532.6,515.6,526.4z"/>
		<path fill="#EE9E00" d="M377.8,431.4c7-8.4,15.1-15.1,24.9-19.9c6.9-4.7,14.3-2.3,21.7-1.8c1.3,0.7,3.1,2.3,1.2,2.9
			c-8.9,3.1-11,11.6-14.8,18.2c2.3-1,5.1-1.9,6.6,2.1C404,434,391,430.9,377.8,431.4z"/>
		<path fill="#ED6700" d="M218.2,567.8c-23,0-46,0-69,0c-2.8-1.5-6.1-2.5-5.7-6.9c27.4,0,54.6,0,82,0
			C225.4,565.7,221,565.9,218.2,567.8z"/>
		<path fill="#FDFDFD" d="M249.7,539.5c2.9,6-0.1,8.1-5.3,9.1c-11.4,2.3-18.4-2.8-19-14.7c-0.3-6.3-0.4-12.8-0.1-19.1
			c0.3-4.5-1.2-6.3-5.7-5.6c-1.9,0.3-4,0-5.9,0c-2.2,0-2-1.6-1.9-3.1c0.1-1.5-0.9-3.5,1.6-4.1c0.7-0.1,1.5,0,2.2-0.1
			c17.6-1.3,17.6-1.3,17.6,16.1c0,3.4,0,6.9,0,10.3C233.5,541.7,236.5,543.9,249.7,539.5z"/>
		<path fill="#F9F9F9" d="M463.2,635.5c0,3.7,0,6.7,0,9.8c0,1.9,0,3.4-2.6,3.4c-1.9,0-3.4-0.3-3.4-2.8c0-12.5,0-24.9,0-37.4
			c0-1,0.3-1.8,1.3-2.3c6-4.3,19.6-1.3,23.7,5.3c4.7,7.6,2.5,19.5-4.4,23.6C473.4,637.7,468.6,637.2,463.2,635.5z"/>
		<path fill="#F0B800" d="M171.2,264.2c3.8,5.9,5.9,5.9,10.1,0.9c5-6,7.5-15,17.6-15.8c3.2-0.3,0.6-5.1,2.9-6.7
			c-0.4,3.4-0.3,6.7,0.4,10c0.1,0.3,0.3,0.4,0.3,0.7c0.4,12.9-18.6,30.5-31.5,29c-3.5,0.1-5-1.8-4-5
			C168.3,272.8,169.9,268.6,171.2,264.2z"/>
		<path fill="#D36200" d="M484.7,260.1c-2.9-4.1,2.2-5.7,2.8-8.8c2.2-9.8,8.9-17.5,13.2-26.3c1.5-2.9,4.1-4,7-4.5
			c2,9.7,5.1,19.2,4.5,29.3c-2-5.3-5-3.2-8.2-1C497.6,252.7,491.2,256.3,484.7,260.1z"/>
		<path fill="#F7F7F7" d="M322.6,616.6c8.2-2.3,10.7-13.1,20.9-12c-2.2,4.3-5.6,6.7-8.8,9.1c-4.8,3.5-6.6,6.3-0.4,10.4
			c4.4,2.9,7.6,7.3,11,12.6c-11.7,1-13-12.3-22.7-14.1c0,3.5,0,7,0,10.6c0,2.2-0.3,3.8-3.1,3.7c-2.3-0.1-2.9-1.2-2.9-3.2
			c0-13.6,0.1-27.3,0-41.1c0-3.1,1.9-3.8,4.1-3.8c2.8-0.1,1.8,2.3,1.8,3.8C322.8,600.5,322.6,608.3,322.6,616.6z"/>
		<path fill="#F6C600" d="M417.2,432.8c-2.1-2.3-5.1-0.4-7.9-2.1c3.4-8.5,5.4-17.7,16.5-19.8c-0.4-3.1,1.3-4.3,4-4.5
			c5.6,8.1,8.1,17.3,9.2,27C431.9,433.3,424.5,433,417.2,432.8z"/>
		<path fill="#F7F7F7" d="M387.1,612.7c0-6.2,0.1-12.2,0-18.3c-0.1-3.1,0.4-5.6,4-5.6c3.7,0.1,1.6,3.2,2,5c0.3,1.2,0.3,2.5,0,3.7
			c-0.9,5.6,0.4,8.1,7,7.3c7-0.9,11.6,3.2,12.3,10.6c0.6,6,0.3,12.2,0.4,18.2c0.1,2.5-1,3.4-3.4,3.4c-2.6,0-2.5-1.6-2.5-3.4
			c0-5.4,0.1-10.7-0.1-16.1c-0.1-4.8-2-8.4-7.8-8.5c-4.2,0-6.3,1.3-6,5.9c0.3,6,0,12.2,0.1,18.3c0,2.1,0,3.8-2.9,3.8
			c-2.9,0-3.1-1.8-2.9-3.8C387.1,626.3,387.1,619.6,387.1,612.7z"/>
		<path fill="#EFAB00" d="M423.2,567.8c-23.4,0-46.9,0-70.3,0c-2.1-2.8-1.8-5.1,1.5-6.9c22,0,43.9,0,65.9,0
			C423.1,562.4,424.8,564.4,423.2,567.8z"/>
		<path fill="#EC7D00" d="M224.1,229.1c4-6.6,8.9-12.6,14.5-17.9c3.4-3.2,6.3-6.6,7.6-11.1c1,0,2,0,3.1,0c6.7,7.3,5.3,16.6,6.3,25.2
			c-0.4,2.8,0.3,6.3-3.1,7.3c-3.7,1-4-3.5-6.4-4.8c-2.3,2.6-2,7-5.6,8.9C236.7,230,230.7,228.7,224.1,229.1z"/>
		<path fill="#ED8400" d="M171.1,282.2c8.2,0,14.2-3.4,18.9-10.4c4.2-6.5,10.8-11.3,12.3-19.4c2.9,7.9,5.9,15.8,8.6,23.8
			c1.3,3.7-0.1,5.4-4,5.7c-3.4,0.1-7.2-0.1-10,1.2c-5.7,2.8-10.7,6.7-17,0.6C178.3,281.9,173.9,284.6,171.1,282.2z"/>
		<path fill="#EA7900" d="M267.9,291c0.1-0.6,0.3-1.2,0.4-1.8c1-0.7,2-0.7,3.1-0.3c9.5,6.2,19.3,12,28.6,18.6
			c2.6,4.8,2.8,9.8,1,14.8c-4-0.4-4-0.4-5.3-5.1c-2.1-6.9-4.1-7-10-2.9c-6.4,4.5-9.5,9.5-7.5,17.5c0.7,2.9,0.7,6.3-1.8,8.9
			c-0.1,3.1-0.1,6.2-0.3,9.4c-2.6-9.1-1-18.6-2.9-27.9C271.7,311.9,269.8,301.4,267.9,291z"/>
		<path fill="#EFB000" d="M86.5,441.9c1.5,4.1,1.8,8.4,1.5,12.8c-12.2,2.5-24.5,5.1-36.6,7.6c-5.4-2.9-0.6-6,0-8.9
			C62.5,448,74.2,444.3,86.5,441.9z"/>
		<path fill="#F1A100" d="M329.5,567.8c-21.4,0-42.9,0-64.3,0c-1-3.1,0.9-5,2.9-6.9c20.5,0,41,0,61.5,0
			C331.4,563.2,331.4,565.4,329.5,567.8z"/>
		<path fill="#E58E00" d="M623.7,455.1c-16.7-2.3-33.2-5.3-49.8-8.8c1.3-5.4,6.1-4.8,10-5c10.4-0.6,20.8-2.3,31.2-1.2
			c4.4-0.9,7.3,3.2,11.6,3.4C629.4,448.4,628.1,452.1,623.7,455.1z"/>
		<path fill="#F2D421" d="M199.2,167.5c0,6.3-0.1,12.6,0,18.9c0,3.4-0.9,5.3-4.7,3.8c-3.4-1.3-6.9-2.5-10.5-2.2
			c-2.2,0.1-3.8-0.9-3.7-3.4c0.3-5.7-1.2-11.7,1.3-17.3C187.5,165.5,193.4,166.1,199.2,167.5z"/>
		<path fill="#F2C402" d="M145.2,141.4c-6.6,2.9-14.1-0.4-20.8,2.8c-3.7,2.9-7.5,2.9-11.1,0c0-0.4,0-1-0.1-1.5
			c-0.1-2.8,0.4-5.7,2.6-7.2c6.4-4.3,10.4-11.3,17.4-14.8c5.4,1.8,4.5,7.5,7.2,11c1.6,2.2,1.9,5.4,4.2,7.5c2.8-0.3,2.3-6.2,6.6-4
			c0.3,0.6,0.4,1.2,0.7,1.8C150.7,140.1,149.4,142.9,145.2,141.4z"/>
		<path fill="#FBFBFB" d="M273.9,621c0,9.7-6.3,16.1-15.1,16c-8.5-0.1-14.2-6.6-14.3-16c0-9.7,5.9-16.3,14.6-16.3
			S273.9,611.2,273.9,621z"/>
		<path fill="#FBFBFB" d="M420.1,620.4c0.1-9.7,6.3-16.1,15.2-15.8c8.8,0.3,14.3,7,14.2,16.9c-0.3,9.2-6.3,15.5-14.8,15.4
			C426,636.9,420,630.1,420.1,620.4z"/>
		<path fill="#EB6B00" d="M598.9,567.8c-18,0-36.2,0-54.2,0c-2.2-2.8-0.7-5,1.5-6.9c19,0,38.1,0,57.1,0
			C604.2,564.7,601.7,566.3,598.9,567.8z"/>
		<path fill="#E99100" d="M511.1,371.5c5.4,4.8,8.3,3.4,11.7-6.3c1.2-3.4,1.3-7.2,4.4-9.7c-2.8,17-4.2,34.2-5.9,51.3
			c-4.1-0.9-4.7-7.8-10.4-5.9C510.3,391,508,381.2,511.1,371.5z"/>
		<path fill="#F1A000" d="M615,440.2c-2.1,2.6-4.8,1.5-7.3,1.8c-8.9,0.6-17.7,0.9-26.6,1.6c-2.5,0.1-5.3,0.7-7.2,2.9
			c-3.5-0.3-7.2,0.1-10.5-1.3c1.2-1.8,4-1.6,4.4-4.1c1.9-3.4,1.8-7.8,4.8-10.6C587.2,431.5,601.1,436.2,615,440.2z"/>
		<path fill="#F4D52A" d="M209.5,191.1c-0.9,0-1.8,0-2.6,0c-0.1-5-0.1-10.1-0.4-15.1c-0.6-6.3,1.6-10.7,7.8-12.8
			c4.4,3.8,10,6.3,13,11.7c-0.1,5.9-3.5,9.8-8.2,12.6C215.9,189.1,212.7,190.1,209.5,191.1z"/>
		<path fill="#F9F9F9" d="M368.9,609.1c-1.5,0-2.6,0-4,0c-2.8,0-5.9,0.1-6.6,3.2c-1,3.7,2.6,4.1,4.8,5.3c3.1,1.5,6.4,2.2,9.4,3.8
			c2.9,1.5,5.1,4,4.8,7.5c-0.3,3.8-2.8,6-6.3,7.2c-5.3,1.6-10.5,1.5-15.8,0.1c-1.9-0.4-4-0.7-3.4-3.7c0.7-3.2,2.8-1.6,4.5-1.2
			c0.4,0.1,0.9,0.4,1.3,0.6c4.7,0.9,11.3,2.9,12.9-2.5c1.8-5.6-5.4-5.4-9.1-7c-4.7-2.1-10.4-3.4-9.2-10.1c1.2-6.7,6.9-7.3,12.4-7.5
			c2.2-0.1,4.4,0,6.4,0.4c1.6,0.3,4.4-0.1,3.8,3.1c-0.6,3.2-2.9,1.3-4.5,1.3C370.1,609.4,369.3,609.1,368.9,609.1z"/>
		<path fill="#F3D80B" d="M171.5,170.3c-1.8,2.8-1.6,6-1.6,9.1c-4.8,3.2-10.8,3.7-16.1,5.9c-4.2,0.3-6.1-1.6-5.9-5.9
			c3.8-8.2,7-16.9,12.2-24.5C165.5,158.7,167.4,165.3,171.5,170.3z"/>
		<path fill="#EB6A00" d="M429.2,153c-1-14.8-1-29.6-2.9-44.3c6,1.2,10.7,4.5,14.6,8.9c-0.6,0.4-1.6,0.7-1.8,1.2
			c-1.9,11.4-8.2,22-5.9,34c0.3,1.8,1.3,2.9,2.3,4.3c2.3,3.1-0.9,2.5-2.3,3.1C428.6,159.9,431.1,155.2,429.2,153z"/>
		<path fill="#EB8400" d="M240.2,236.5c1-2.9,2-5.9,2.8-8.9c0.4-1.6-0.1-3.8,2.2-4c2.3-0.1,3.4,1.6,3.7,3.7c0.3,1.9,0.4,4.5,3.1,4
			c2.3-0.6,1-3.4,1.5-5.1c5.6,1.8,4.7,6.2,4.2,10.4c-0.6,8.5,2.8,16.4,3.8,24.8c0.4,2.6-0.6,2.1-2.2,1.6
			c-3.2-9.2-7.2-17.7-16.5-22.4C241.4,239.8,240.2,238.4,240.2,236.5z"/>
		<path fill="#CA4500" d="M225.7,436.1c-3.8,2.3-7.9,1.2-11.9,1.2c-0.9-7.9,4-13.6,7.3-20.1c6.3-1.2,12.6-2.2,19-1.8
			c1.5,0.7,3.2,1.5,3.4,3.5C239.6,426.8,231.4,430.1,225.7,436.1z"/>
		<path fill="#F29500" d="M303.2,383.3c-6.4,0-13,0-19.5,0c-2.5,0-5,0.3-5.4-3.2c-0.6-4,0.4-7.8,1.6-11.4c6.6-1.3,12.7,4.1,19.6,0.4
			c2.1-1.2,3.7,1.8,3.7,4.1C303.2,376.5,303.2,379.9,303.2,383.3z"/>
		<path fill="#F1C200" d="M423.2,567.8c-1-2.3-1.9-4.5-2.9-6.9c15.7,0,31.2,0,46.9,0c2.2,1.9,3.7,4,1.5,6.9
			C453.4,567.8,438.3,567.8,423.2,567.8z"/>
		<path fill="#EFAA00" d="M468.5,567.8c-0.4-2.3-1-4.5-1.5-6.9c14.6,0,29.3,0,44.1,0c2.8,1.3,5.3,3.1,4.2,6.9
			C499.8,567.8,484.1,567.8,468.5,567.8z"/>
		<path fill="#F2A900" d="M568,441.9c1.3,5.7-3.5,1.6-4.8,3.1c-11.4-0.1-22.5-2.5-33.7-4.4c1.6-0.7,2.9-1.6,2.2-3.8
			c-0.4-1.2-0.4-2.9,0.9-3.1c12.6-1,3.1-5.9,1.6-9.2c1.5,0,2.9,0,4.4,0c2.3,1.2,4.1,3.1,5.9,5.1c5.3,3.5,11,5.7,17,7.6
			C564.1,438.3,567,438.9,568,441.9z"/>
		<path fill="#F08400" d="M268,560.9c-1,2.3-1.9,4.5-2.9,6.9c-15.7,0-31.2,0-46.9,0c1.3-3.4,5.6-3.8,7.3-6.9
			C239.6,560.9,253.8,560.9,268,560.9z"/>
		<path fill="#EFBB0E" d="M3,199.9c0-11.1,0-22.3,0-33.3c0-2.2-0.1-4.5,2.2-5.7c2.6-1.3,4.5,0,6,2.2c0.1,11.7,0.1,23.6,0.3,35.3
			c-0.4,0.4-1,0.6-1.6,0.4C7.4,198,5.5,201,3,199.9z"/>
		<path fill="#D54F00" d="M225.7,436.1c-1.9-2.3,0.6-3.2,1.6-3.8c5.9-4,11-8.7,15.8-13.8c6.1-1.2,8.9,3.1,11.7,7.3
			c0,0.4,0,0.9,0,1.5c0.6,5.6-4.5,5.1-7.3,7.3C240.4,436.7,233,436.2,225.7,436.1z"/>
		<path fill="#E7B604" d="M10.3,198.5c0.4,0,0.9,0,1.2,0c0,20.1-0.1,40.2-0.1,60.1c-2.8-1.2-5.6,6.9-8.5,0c0-9.2,0.1-18.6,0.1-27.9
			c3.5-0.6,5.4-2.3,5.3-6.3c-0.1-6-0.1-12,0-18C8.4,203.8,8,200.7,10.3,198.5z"/>
		<path fill="#EDAC00" d="M145,186.7c1.2,0.1,2.6,0.6,2.6,1.9c0.7,8.8,3.5,17.3,3.1,26.3c-8.3-5-14.6-11.9-18.6-20.8
			C136.1,191,139,186.2,145,186.7z"/>
		<path fill="#ED7800" d="M143.6,560.9c1.9,2.3,3.8,4.5,5.7,6.9c-11.4,0.1-22.8,0.1-34.3,0.3c-2.6,0-5.1-0.3-5-3.7
			c0.1-3.2,2.3-3.8,5.1-3.8C124.5,560.7,134.1,560.7,143.6,560.9z"/>
		<path fill="#F7F7F7" d="M299.6,604.7c1,0,2.8-0.3,4.4,0c1.5,0.3,3.5,0.4,2.9,3.1c-0.6,2.5-2,2.1-3.8,1.5c-1.6-0.4-3.4-0.3-5-0.4
			c-5.9-0.4-9.1,1.2-8.2,8.1c0.7,5.3,0.1,10.7,0.1,16.1c0,2.1,0.1,3.8-2.9,3.7c-2.9,0-3.1-1.6-3.1-3.7c0-7.6,0.1-15.1,0-22.7
			c-0.1-3.1,1.3-4.3,4.1-4.7C291.9,605.3,295.4,604.3,299.6,604.7z"/>
		<path fill="#F3CF36" d="M133.3,120.7c-2.8,4.8-7,8.7-11.3,11.7c-4,2.9-6.4,6.3-8.9,10.1c-2.2-1.9-3.1-4.4-3.7-7.2
			c4.7-9.4,9.8-18.5,19.5-23.8C132.9,113.6,131.3,118.1,133.3,120.7z"/>
		<path fill="#F3C200" d="M515.3,567.8c-1.5-2.3-2.9-4.5-4.2-6.9c11.7,0,23.3,0,35,0c-0.4,2.3-0.9,4.5-1.5,6.9
			C534.9,567.8,525.1,567.8,515.3,567.8z"/>
		<path fill="#F5D34F" d="M129.1,111.8c0,0.3,0,0.6-0.1,0.7c-8.3,6.2-11.7,16.4-19.3,23c-0.9-1.9-1.9-3.8-2.8-5.7
			c-1.3-5.3,1.5-9.2,4-13.5c0.9-0.7,1.8-1.2,2.9-1.2c2.8,0.1,5.1-0.4,6.7-3.2c1.3-2.3,3.1-4.3,6-4.7
			C128.9,107.5,128.9,109.7,129.1,111.8z"/>
		<path fill="#F0B424" d="M4.5,84.1c0.4,0.4,1,1,1.5,1.5c0.1,3.7,0.4,7.2,5.6,4.4c0,2.5-0.1,5-0.1,7.3c-2.3,4.4-0.6,8.9-1,13.5
			c-0.3,2.1-0.6,3.8-3.2,4c-2.2,0-4.2-0.3-4.1-2.9C3.7,102.6,1.3,93.2,4.5,84.1z"/>
		<path fill="#E6A900" d="M123.1,88.5c0.9-5.1,3.2-10.9-4.4-13.2c4.2-0.3,8.6-0.4,11.7-4.3c1-1.3,2.6-2.3,4.4-1.3
			c2,1.2,1.9,3.4,1.2,5.1c-1.9,5-0.9,10-1,15c-2,1-4.1,2.1-5.6-0.7C127.5,86,125.3,87.5,123.1,88.5z"/>
		<path fill="#FAE585" d="M160.1,154.8c-2.2,9.1-6.3,17.2-12.2,24.5c0-2.3-0.1-4.7-0.1-7c-1.2-4.5-0.6-9.1-0.4-13.5
			c0.1-4.7,4.4-7.2,10.8-7.2C159.5,152.3,159.8,153.5,160.1,154.8z"/>
		<path fill="#E46500" d="M672.1,459.4c8.3,3.5,16.8,7,24.3,12c-0.3,0.7-0.4,1.3-0.7,2.1c-12.3-3.4-24.5-6.6-36.7-10
			C661.9,457.3,667,458.7,672.1,459.4z"/>
		<path fill="#F4E379" d="M158.2,151.5c-11.7,2.8-10.7,12-10.4,20.8c-2.8-6.3-0.6-12.9-1.6-19.4c1.2-4-2.2-7.6-1-11.6
			c3.1-0.1,4.4-2.9,6.7-4.4C152.8,142.3,157.9,145.8,158.2,151.5z"/>
		<path fill="#E25200" d="M672.1,459.4c-4.2,1.8-9.5,0.6-13.2,4.1c-4-1-7.9-1.9-11.9-2.9c-3.4-5-2.8-6.7,3.4-8.8
			C658.1,453.2,665.2,455.9,672.1,459.4z"/>
		<path fill="#EB8300" d="M329.5,567.8c0-2.3,0-4.5,0-6.9c8.3,0,16.5,0,24.9,0c-1.5,2.1-1.6,4.4-1.5,6.9
			C345,567.8,337.3,567.8,329.5,567.8z"/>
		<path fill="#D83900" d="M623.7,455.1c1.6-3.7,3.4-7.3,2.9-11.6c5.4,2.1,11.7,1.6,16.5,5.4c-1.9,5-7.5,5.4-10.7,8.8
			C629.7,456.3,626.3,457.3,623.7,455.1z"/>
		<path fill="#F88100" d="M254.8,425.8c-4.1-2.1-6.9-6.3-11.7-7.3c-1-1-1.9-2.1-2.9-3.1c6.6-2.8,13.6-1,20.5-1.6
			C258.9,417.9,259.2,423,254.8,425.8z"/>
		<path fill="#EE8D00" d="M568,441.9c-2.5-1-4.8-2.1-7.3-2.9c-2.8-3.4-4.5-7-2.9-11.6c5.3-1.2,9.5,2.8,14.6,2.9
			C571.2,434.3,572.4,439.2,568,441.9z"/>
		<path fill="#EC9800" d="M557.9,427.4c1,3.8,1.9,7.6,2.9,11.6c-5.9-2.9-12.7-3.8-17.6-8.8c0.6-2.5,2.2-4,4.4-4.7
			C551,426.1,554.4,426.8,557.9,427.4z"/>
		<path fill="#F3DA2F" d="M113.4,144.1c3.7,0,7.5,0,11.1,0c4.7,0.3,6,2.2,2,5.6c-2.9,2.5-5.6,6.3-10.4,4.8
			C114.7,151.1,113.3,147.9,113.4,144.1z"/>
		<path fill="#F28000" d="M221,417.2c-2.5,6.7-4.8,13.3-7.3,20.1c-2.9,0.4-5.9,0.9-8.8,1.3c-1.5-4.5,2.9-5.9,5-8.5
			c1.5-1.9,3.5-3.2,5.3-5c1.3-1.3,2.9-3.2,2.3-5c-0.7-2.8-3.7-1.2-5.6-1.8C214.7,416,218,417.2,221,417.2z"/>
		<path fill="#DE4700" d="M632.6,457.6c0.9-6.2,7.5-5.3,10.7-8.8c2.5,0.7,5.3,1,7.3,2.9c-3.2,2.1-5.6,4.5-3.4,8.8
			C642.3,459.7,637.4,458.7,632.6,457.6z"/>
		<path fill="#DE9900" d="M262.2,710.3c-7.5-0.1-14.8-0.3-22.1,1.3c-3.2-1.3-6.7-1-10-0.3c-8.1,1.8-15.8,1.3-23.6-1
			c0-0.4,0-0.9,0-1.2c25.3,0,50.7,0,76,0c-4.2,2.5-8.8,0.6-13.2,1.3C267,711.4,264.7,711.4,262.2,710.3z"/>
		<path fill="#FAFAFA" d="M233.5,489c-0.4,3.8-2.6,5.7-6.3,5.6c-3.5-0.1-6.1-1.9-6.1-5.7c0-4.3,2.9-6,6.7-5.9
			C231.6,483.2,233.5,485.4,233.5,489z"/>
		<path fill="#E46900" d="M175.8,433.1c3.5,1.2,5.3,4.3,7.3,7c-7.3,1-14.6,1.9-22,2.9C165.1,438.4,171.1,436.7,175.8,433.1z"/>
		<path fill="#F4D623" d="M128.9,188.2c0.7-8.2,0.7-8.2,13.2-7.3c0,0.4,0,1,0,1.5c0.7,3.4-2,4.1-4.1,5c-2.8,1.2-4,4.1-6.4,5.7
			C129.8,191.9,128.9,190.3,128.9,188.2z"/>
		<path fill="#EC5600" d="M247.5,434.5c1.6-3.4,6.1-3.7,7.3-7.3c5.4,2.2,9.5,7.9,16.4,6C263.5,435.8,255.4,434,247.5,434.5z"/>
		<path fill="#F7DA34" d="M131.7,193.1c-0.3-4,1.8-6.3,5.4-7.3c2-0.6,4.2-1,5.1-3.4c2,0.7,2.9,2.2,2.9,4.4
			c-4.8,1.6-7.5,6.7-12.9,7.3C131.7,193.8,131.6,193.5,131.7,193.1z"/>
		<path fill="#D95900" d="M598.9,567.8c1.5-2.3,2.9-4.5,4.2-6.9c3.1-0.3,7-1.3,7.2,3.4c0,4.7-4.1,3.7-7.2,3.7
			C601.7,568.1,600.2,567.8,598.9,567.8z"/>
		<path fill="#E8C50A" d="M111.5,116.3c-1.6,4.5-3.2,8.9-4.8,13.5c-1.5-1.5-2.8-3.1-4.2-4.5l0.3-0.3c2.8-2.8,2.9-7.5,7-9.2
			C110.5,115.6,111.1,115.9,111.5,116.3z"/>
		<path fill="#DA7F00" d="M547.7,425.5c-0.9,2.1-2.3,3.7-4.4,4.7c-1.5-1.9-2.9-3.8-4.4-5.9C541.8,424,544.9,423.5,547.7,425.5z"/>
		<path fill="#E96700" d="M344.2,10.7c-3.4,0-6.9,0-10.2,0C337.3,8.4,340.6,8.4,344.2,10.7z"/>
		<path fill="#EFC502" d="M10.3,198.5c0,9.4,0,18.8-0.1,28.2c0,2.2,1.2,5.1-1.5,6.6c-2.3,1.2-3.7-1.8-5.7-2.5c0-10.3,0-20.5,0-30.8
			C5.7,200.2,6.7,192.5,10.3,198.5z"/>
		<path fill="#F3C50C" d="M572.4,710.3c-2.9,4.5-5.9,6.9-8.6,0C566.7,710.3,569.5,710.3,572.4,710.3z"/>
		<path fill="#E36500" d="M229.8,711.8c-0.4,3.5-3.2,2.8-5.6,2.8c-6,0-11.9,0-17.9,0c1-1.8,2.8-1.3,4.4-1.5
			C217.1,709.9,223.5,710.6,229.8,711.8z"/>
		<path fill="#F9A800" d="M229.8,711.8c-6.3-0.1-12.7-0.3-18.9,1.3c-1.5-0.9-2.9-1.9-4.4-2.8c8.9,0,17.9-0.1,26.6,0
			c2.3,0,4.8-0.9,6.7,1.3C236.7,711.7,233.3,711.8,229.8,711.8z"/>
		<path fill="#B35D00" d="M262.2,710.3c2.3,0,4.7,0,7.2,0C267,712.4,264.7,712.4,262.2,710.3z"/>
		<path fill="#F7D939" d="M209.5,191.1c0.9-2.2,2.9-3.5,5-3.8c7.2-1.2,8.6-7.9,12.6-12.3c7.6,5.3,12.4,13.2,19,19.5
			c0.7,0.6,1,1.6,0,2.5c-10.4-2.8-21.4-2.2-31.8-4.4C212.5,192.2,211.1,191.6,209.5,191.1z"/>
		<path fill="#EFC500" d="M405.7,106.1c-1.3,10.3,5.4,18.5,6.7,28c0.3,2.2,1.2,4.5,0,6.5c-6,8.7-1.2,16.3,1.9,24.2
			c2.3,5.9,3.1,12.3,2.9,18.5c-0.4,13.8,1.8,27.6,0.1,41.4c-0.3,2.5-1,5.4,1.6,7.5c0.3,2.6-1.5,4-3.4,5.1
			c-11.4,6.5-22.8,11.9-36.5,13.6c-23.9,3.1-47.9,4.7-71.6,8.1c-5.4,0.7-7.9,3.1-8.1,8.4c-0.3,2.5,0,5-1.6,7
			c-4.7,0.3-3.7-3.5-3.8-5.9c0-4.8-1.2-9.4-3.2-13.8c0.9-4.4,0.3-9.7,6.4-11c5.9-4.8,9.1-11.6,13.2-17.6
			c13.5-16.9,26.8-34,40.7-50.6c14.3-17,25.9-35.9,40.7-52.4C396.7,117.8,401.1,111.8,405.7,106.1z"/>
		<path fill="#BD6C00" d="M297.2,243.9c-4.1,2.2-2.3,7.8-5.9,10.3c-2.2,5.9-5.7,11.1-9.2,16.3c-1.6,2.3-3.2,5-6.7,4.5
			c-1.6-5-2.3-10.1-1.2-15.1c0.6-2.5,0.4-4.3-1.3-5.9c-0.7-0.6-1.6-1.6-1.6-2.3c0.9-7.6-0.1-15.1-1-22.6c-0.6-5.4,3.1-4.7,6.6-4.3
			C284,230.7,291.9,235.9,297.2,243.9z"/>
		<path fill="#AE5900" d="M257.6,236.6c-2.5-3.1-0.4-7.9-4.2-10.4c0.1-8.9-1.8-17.6-4.2-26.3c5.7,3.4,11.4,6.7,14.5,13.1
			c-6.1,4.7-5.3,10.9-3.1,16.9C261.7,233.7,262.5,236,257.6,236.6z"/>
		<path fill="#EA6B00" d="M429.2,153c2.6,1.8,1.9,5.4,4.2,7.3c2.9,13.1,6.7,26,3.4,39.7c-1.3,5.6,1.5,11.7,3.1,16.9
			c2.6,8.7,0,16.7,0.9,24.9c0.6,5.1,0,10.3,0.1,15.4c0.1,7.5,4.7,9.8,11,6.2c1-0.6,2.3-0.4,3.5-0.6c-1.5,7-6.3,11.4-11.6,15.7
			c-1.5,1.2-3.1,1.3-4.5-0.1c-3.1-5-3.4-10.6-3.5-16.1c-0.1-10.1-0.9-20.4,0.9-30.5c0.7-4-0.9-7-3.2-10c-1.2-3.8-1.3-7.6-1.5-11.4
			C431.1,191.3,430.1,172.2,429.2,153z"/>
		<path fill="#CA5100" d="M440.8,279.1c6.6-3.8,9.7-10.7,14.6-16.1c2-2.5,2.9-5.7,5.9-7.3c2.1,4.7,4.4,8.9,8.9,11.9
			c-3.8,5.4-10.1,7.2-15.4,10.4c-4.1,2.5-8.9,4-11.3,8.8C439.3,285.3,438.7,282.7,440.8,279.1z"/>
		<path d="M440.8,279.1c-0.4,2.9,0.4,5.6,2.8,7.6c0.6,0.9,1.2,1.8,1.6,2.6c3.7,2.6,3.7,6.6,3.7,10.4c0,10.4-0.3,20.8-0.1,31.2
			c-1.6,14.2-4.2,28.3-6.3,42.5c-1.5,5-2.3,10-3.2,15c-0.6,1.9-1.3,3.7-3.2,4.8c-1,4.8-5.3,8.1-6,13.1c-1.3,1.5-2.6,3.1-4,4.5
			c-7.8,0.1-15.5,0.3-23.4,0.4c-22.8-1.6-45.8-2.8-68.8-1.5c-9.2-0.9-18.2,2.2-27.4,1c-3.1-5.1-6.6-9.8-1-16c2.3-2.5,1-6.9-0.9-10.3
			c0.4-19.2-1.2-38.1-3.4-57.2c-0.9-1.3-2.2-2.5-1.2-4.4c0.4-5.4,0.4-10.9-1.5-16.1c-4.5-10-1.8-20.4-1.3-30.7c0.1-3.1,1-6.2,0-9.2
			c-0.1-7.2,3.1-9.4,10.5-10.3c22.4-2.9,44.8-4.8,67.2-7.3c16.7-1.9,30.6-7.8,43.8-17.2c5.6-2.3,10.8-5.3,14.5-10.3
			c6.3-0.3,6.3,3.5,5.7,8.2c-2.1,14.7-2.2,29.5,0.3,44.1C439.6,275.9,440.2,277.5,440.8,279.1z"/>
		<path d="M511.1,371.5c0.1,9.8,2.6,19.5,0,29.3c-2.3,2.5-4.4,5.6-4.8,8.8c-1.2,8.5-7.6,9.7-13.5,8.5c-18-3.4-36.3-3.2-54.3-5.9
			c-0.3-2.9,1.5-4.7,2.5-6.9c2.3-5.4,3.7-11.3,5.9-16.7c2.1-3.7,3.4-7.6,5-11.6c4.7-8.1,11.9-14.7,14.6-23.9
			c0.9-8.1,0.4-16.1,0.3-24.1c-0.3-10.6,1.2-20.8,2.8-31.2c0.4-3.1,0.9-6.3,3.8-8.4c1.6-1.9,3.7-1.6,5.9-1.5
			c10.5,6.9,11.9,19.1,16.5,29.3c3.7,11.1,10.7,21.1,12,33.1C508.1,357.5,508.3,364.8,511.1,371.5z"/>
		<path fill="#E6A406" d="M447.8,389c-1.2,6-3.1,11.7-6.9,16.4c0.3-1.6,0.3-3.4,0.7-4.8c1.8-5.3-0.1-7.6-5.6-7.2
			c0.3-1.6,0.3-3.2,1.6-4.4C441.1,386.8,444.5,386.4,447.8,389z"/>
		<path fill="#F09E00" d="M473,289.4c-4.2,18.8-5.1,37.8-4.5,56.9c0.1,3.1,1.2,6.3-1.3,9.1c-2.3-2.1-2.2-4.8-1.9-7.5
			c0.9-10.7-3.1-19.5-10.4-27c-1.5-1.6-2.6-3.4-4.2-6.5c-0.9,4.3-0.1,7.6-0.6,10.7c-0.3,2.5,0.6,5.6-3.1,6.5
			c0-9.7,0.1-19.4-0.1-28.9c-0.1-4.5-1-9.1-1.6-13.6c7.8-4.3,16.3-2.6,24.6-2.9C471.7,286.5,472.7,287.5,473,289.4z"/>
		<path fill="#F3CE2E" d="M109.9,116.3c-2.6,2.6-2.3,7.8-7.2,8.7c0.4-9.7-1.8-19.7,1.3-29.2c2.5,1.6,1.2,4.7,2.6,6.9
			c1.8-2.3,0.9-5.9,3.8-7.3c3.4,0,5.4,1.8,4.5,4.8C113.6,105.5,114.1,111.8,109.9,116.3z"/>
		<path fill="#F5D249" d="M109.8,95.8c-0.3,4.1-0.1,10.9-3.8,10.6c-4.1-0.3-0.9-7-2-10.9c0-0.4,0.1-0.9,0.1-1.3c0.4,0,0.9,0,1.3,0
			C106.7,95.8,108.7,94.3,109.8,95.8z"/>
		<path fill="#F6D724" d="M153.8,185.3c0.7-1.8-1.9-8.2,4-2.9c0.9,0.7,1.9,0.7,2.5-0.1c2.3-4.1,6.3-2.3,9.7-2.8
			c1,1.8,1.8,3.7,1.5,5.9c-5.4,1.3-10.7,1-16.1,0C154.8,185.3,154.3,185.3,153.8,185.3z"/>
		<path fill="#F9D801" d="M155.3,185.3c5.4,0,10.7,0,16.1,0C166,188.2,160.7,187,155.3,185.3z"/>
		<path fill="#030303" d="M420.9,507.4c0-0.7-0.3-1.6,0-2.2c1.8-3.4-4-9.4,3.5-10.4c10.1-1.5,16.3,1.8,17.7,8.5
			c1.8,8.1-1.2,13.6-7.9,15.7C423.2,522.3,420.9,520.1,420.9,507.4z"/>
		<path fill="#030303" d="M480,521.1c-1.5,0-2.9,0.3-4.4,0c-2.3-0.6-6.1,1.8-7-1.3c-0.7-3.1,1.9-5.9,4.5-7.8c4-2.8,8.5-3.7,13-1.3
			c3.5,1.8,6.2,5,5.4,8.7c-0.7,4-4.8,1.2-7.3,1.8C483.1,521.4,481.5,521.1,480,521.1z"/>
		<path fill="#ED8400" d="M300.1,323.1c0.7,1.3,1.6,2.8,1.2,4.4c-7.9,1.8-13.9,7-19.8,12.2c-2.1,1.8-3.2,0.7-4.8,1
			c-0.3-5.6,0.9-11.1-1.3-16.6c-0.3-0.9-0.1-1.9-0.1-2.9c0.1-1.5,12.2-11.7,13.6-11.9c4.4,0,8.8-0.3,8.3,6.3
			C297.3,318.3,298.2,321.1,300.1,323.1z"/>
		<path fill="#F6D100" d="M275.3,274.9c6.1-4.4,8.9-11.3,12.7-17.5c0.9-1.5,1.2-3.2,3.4-3.2c3.8,3.2,4.8,7.5,4.5,12.3
			c-0.1,2.8-1.2,5.9,1.3,8.2c0.3,0.4,0.6,0.9,0.6,1.3c1.2,13.6,0.9,14.1-12.7,14.1c-4.7,0-9.7,1.9-14.3-0.7
			c-0.9-0.1-1.8-0.1-2.5-0.3C269.1,283.5,272.6,279.4,275.3,274.9z"/>
		<path fill="#F4CB14" d="M109.8,95.8c-1.6-0.1-3.4,0.1-4.4-1.5c5.4-0.6,10.8,0.4,16.3,1.3c1.2,0.7,1.3,1.8,1.3,3.1
			c-1.6,1.3-1.2,3.5-2,5.1c-2,4.3-3.1,8.9-6.7,12.3c-0.9,0-1.8,0.1-2.6,0.1c-0.6,0-1.2,0-1.6-0.1c1.3-5,0.9-10.4,3.2-15.3
			C114.9,97.6,113.1,96.1,109.8,95.8z"/>
		<path fill="#F6D962" d="M114.1,116.2c0.7-5,2.9-9.2,5.9-13.2c1.2-0.9,1.6-2.5,3.1-3.1c1.9,2.1,2.9,4.4,3.1,7.2
			c-1.2,2.8-4.4,3.8-5.1,7.2C120.6,116.6,117.2,118.7,114.1,116.2z"/>
		<path fill="#F9DE7C" d="M123.1,100.1c-0.1,1.9-1,3.1-3.1,3.1c0.3-1.9-0.3-4.4,2.9-4.4C123.1,99.2,123.2,99.6,123.1,100.1z"/>
		<path fill="#060606" d="M463.2,620.6c0-1.6-0.1-2.6,0-3.5c0.6-2.8-2-6.9,2.8-7.9c4.5-0.9,9.1,0,11.3,4.7
			c2.8,5.6,2.6,11.4-1.6,16.4c-2.5,2.9-6,2.9-9.4,1.3C460.4,629.1,464.5,623.8,463.2,620.6z"/>
		<path fill="#F3AD00" d="M270.8,289.4c5.9-1.5,11.9-2.1,17.9-1.3c7.2,0.9,9.7-2.2,8.5-8.9c-0.3-1.5,0-2.9,0-4.4
			c0-2.5,0.1-5.1,0.1-7.6c2.6,13.2,0.9,26.5,1.3,39.9c-7.6-0.1-11.3-7.3-17.7-10.1C277.4,295.3,272.9,293.8,270.8,289.4z"/>
		<path fill="#030303" d="M268,620.7c0,7.2-3.5,11.9-8.9,11.7c-5.4-0.1-8.8-4.7-8.6-12c0.1-5.7,1.6-10.9,8.5-11.4
			C264.4,608.7,268,613.5,268,620.7z"/>
		<path fill="#030303" d="M443.7,620.9c0,7.2-3.7,11.9-9.1,11.7c-5.3-0.1-8.6-4.8-8.5-12.2c0.1-6.9,3.5-11.3,8.6-11.3
			C440.1,609,443.7,613.7,443.7,620.9z"/>
		<path fill="#F0C800" d="M446.9,331.9c2.6-5.6,0.6-11.4,1.2-17.2c0.1-1.6-0.6-3.8,1.8-4.1c1.6-0.1,2.3,1.5,2.6,2.9
			c0.7,3.5,3.5,5.6,5.7,8.1c6.6,7.3,10.1,15.7,8.9,25.8c-0.3,2.6,0,5.3,0,7.9c-3.2,8.4-9.1,15.1-14.3,22.1
			c-4.7,1.6-8.8,0.4-12.2-3.1C442.7,360.2,444.7,346,446.9,331.9z"/>
		<path fill="#F3D875" d="M440.6,374.5c4.1,1,8.1,2.1,12.2,3.1c-0.6,4.3-2.3,8.1-5,11.4c-3.4,0-6.7,0-10.1,0
			C437.4,383.9,438,378.9,440.6,374.5z"/>
	</g>
</g>
</svg>
